<svg viewBox="0 0 1050.7 1025.9" xmlns="http://www.w3.org/2000/svg">
<defs>
<clipPath id="be">
<path d="m12 997h477v28h-477z"/>
</clipPath>
<clipPath id="bd">
<path d="m12 997h99v28h-99z"/>
</clipPath>
<clipPath id="as">
<path d="m12 997h803v28h-803z"/>
</clipPath>
<clipPath id="ah">
<path d="m247 997h711v27h-711z"/>
</clipPath>
<clipPath id="w">
<path d="m12 997h57v28h-57z"/>
</clipPath>
<clipPath id="l">
<path d="m12 997h174v28h-174z"/>
</clipPath>
<clipPath id="d">
<path d="m34 997h258v28h-258z"/>
</clipPath>
<clipPath id="c">
<path d="m263 997h173v28h-173z"/>
</clipPath>
<clipPath id="b">
<path d="m742 997h308v28h-308z"/>
</clipPath>
<clipPath id="a">
<path d="m1e3 997h21v28h-21z"/>
</clipPath>
<clipPath id="bc">
<path d="m508 997h141v28h-141z"/>
</clipPath>
<clipPath id="bb">
<path d="m531 997h82v28h-82z"/>
</clipPath>
<clipPath id="ba">
<path d="m724 997h26v6h-26z"/>
</clipPath>
<clipPath id="az">
<path d="m985 997h65v28h-65z"/>
</clipPath>
<clipPath id="ay">
<path d="m686 997h100v28h-100z"/>
</clipPath>
<clipPath id="ax">
<path d="m0 997h13v28h-13z"/>
</clipPath>
<clipPath id="aw">
<path d="m12 997h0.5v28h-0.5z"/>
</clipPath>
<clipPath id="av">
<path d="m0 997h13v28h-13z"/>
</clipPath>
<clipPath id="au">
<path d="m12 0.1h477v48h-477z"/>
</clipPath>
<clipPath id="at">
<path d="m12 0.1h99v46h-99z"/>
</clipPath>
<clipPath id="ar">
<path d="m12 0.1h803v997h-803z"/>
</clipPath>
<clipPath id="aq">
<path d="m12 0.1h57v23h-57z"/>
</clipPath>
<clipPath id="ap">
<path d="m12 0.1h174v101h-174z"/>
</clipPath>
<clipPath id="ao">
<path d="m34 0.1h258v25h-258z"/>
</clipPath>
<clipPath id="an">
<path d="m12 141h73v160h-73z"/>
</clipPath>
<clipPath id="am">
<path d="m742 0.1h308v48h-308z"/>
</clipPath>
<clipPath id="al">
<path d="m1e3 0.1h21v46h-21z"/>
</clipPath>
<clipPath id="ak">
<path d="m508 0.1h141v34h-141z"/>
</clipPath>
<clipPath id="aj">
<path d="m531 0.1h82v9h-82z"/>
</clipPath>
<clipPath id="ai">
<path d="m985 0.1h65v101h-65z"/>
</clipPath>
<clipPath id="ag">
<path d="m957 141h93v160h-93z"/>
</clipPath>
<clipPath id="af">
<path d="m686 0.1h100v19h-100z"/>
</clipPath>
<clipPath id="ae">
<path d="m12 484h477v513h-477z"/>
</clipPath>
<clipPath id="ad">
<path d="m12 903h99v94h-99z"/>
</clipPath>
<clipPath id="ac">
<path d="m12 997h57v0.4h-57z"/>
</clipPath>
<clipPath id="ab">
<path d="m12 816h174v181h-174z"/>
</clipPath>
<clipPath id="aa">
<path d="m34 798h258v199h-258z"/>
</clipPath>
<clipPath id="z">
<path d="m263 757h173v240h-173z"/>
</clipPath>
<clipPath id="y">
<path d="m742 490h308v507h-308z"/>
</clipPath>
<clipPath id="x">
<path d="m1e3 903h21v94h-21z"/>
</clipPath>
<clipPath id="v">
<path d="m831 60h219v686h-219z"/>
</clipPath>
<clipPath id="u">
<path d="m508 899h141v98h-141z"/>
</clipPath>
<clipPath id="t">
<path d="m531 958h82v39h-82z"/>
</clipPath>
<clipPath id="s">
<path d="m247 303h711v694h-711z"/>
</clipPath>
<clipPath id="r">
<path d="m724 975h26v22h-26z"/>
</clipPath>
<clipPath id="q">
<path d="m985 816h65v181h-65z"/>
</clipPath>
<clipPath id="p">
<path d="m686 936h100v61h-100z"/>
</clipPath>
<clipPath id="o">
<path d="m0 0.1h13v48h-13z"/>
</clipPath>
<clipPath id="n">
<path d="m0 0.1h13v46h-13z"/>
</clipPath>
<clipPath id="m">
<path d="m12 0.1h0.5v23h-0.5z"/>
</clipPath>
<clipPath id="k">
<path d="m0 0.1h13v101h-13z"/>
</clipPath>
<clipPath id="j">
<path d="m0 141h13v160h-13z"/>
</clipPath>
<clipPath id="i">
<path d="m0 490h13v507h-13z"/>
</clipPath>
<clipPath id="h">
<path d="m0 903h13v94h-13z"/>
</clipPath>
<clipPath id="g">
<path d="m0 60h13v686h-13z"/>
</clipPath>
<clipPath id="f">
<path d="m12 997h0.5v0.4h-0.5z"/>
</clipPath>
<clipPath id="e">
<path d="m0 816h13v181h-13z"/>
</clipPath>
</defs>
<g clip-path="url(#be)">
<path transform="matrix(1 0 0 -1 185 518)" d="m-8e-4 -6e-4c-8-13-19-22-29-32-3-3-5-6-6-9-3-7-0.2-12 4-17 2-2 4-4 6-7 9-9 17-18 24-28 6-9 13-16 21-23 11-10 20-21 28-34 6-10 14-19 24-24 4-2 9-3 14-3 5 0.2 11-0.2 16 0.07 18 0.8 33-6 46-17 18-15 36-29 54-43 11-8 24-12 37-15 13-2 26-4 38-9 7-3 13-6 18-10 7-6 8-14 5-22-5-14-12-26-23-36-9-8-19-16-25-28-3-6-5-12-6-19-1-8 0.4-16 3-24 4-12 6-25 10-38 3-9 7-18 11-27 7-18 6-36-6-52-10-14-24-24-38-34-9-7-20-4-30-0.2-14 6-25 17-32 30-8 14-17 27-26 40-6 10-11 20-15 30-4 9-9 18-14 27-5 9-10 18-15 27-9 15-17 31-26 46-6 9-10 19-12 30-1 11-0.2 22 0.9 34 0.9 9 3 19 2 28-0.5 11-7 20-16 23-6 2-11 1-15-2-20-12-42-18-64-24-7-2-14-3-21-3-10-0.1-19 3-28 6-8 3-16 5-25 5-9-0.3-18 0.1-26-0.1-9-0.2-18 2-26 3-14 2-27 0.7-40-4-11-4-18-12-23-22-1-2-3-4-4-6-4-7-12-7-19-8-8-1-15-3-23-4-15-2-31-2-46 4-10 4-19 9-27 16-11 9-17 22-10 38 4 9 9 17 14 25 3 7 6 14 6 22 0.3 10-3 19-13 24-9 5-18 7-28 9-11 2-22 3-34 6-11 2-22 4-32-0.8-6-3-13-6-19-8-15-4-27 3-29 18-0.7 7 0.04 14 1 20 3 13 1 25-2 37-3 10-5 20-5 31 0.9 16 13 35 28 39 6 2 12 0.5 18-2 24-10 43-26 54-51 5-12 11-23 19-34 8-11 18-20 29-28 10-6 19-13 28-21 11-10 25-15 38-22 9-4 19-9 27-16 8-7 10-17 11-27 1-9 3-18 10-24 5-5 8-4 11 2 5 9 6 20 9 30 3 10 4 19 8 29 4 10 12 18 20 24 8 6 15 12 18 22 2 8 1 16-0.7 24-3 12-4 23-0.8 35 5 16 16 26 32 29 11 2 23 4 34 7 15 4 25 14 27 30 0.3 2 2 3 1 4" fill="none" stroke="#c57a3c" stroke-dasharray="7.006 5.004 7.006 5.004" stroke-linejoin="round" stroke-miterlimit="10" stroke-opacity=".8" stroke-width="2"/>
</g>
<g clip-path="url(#bd)">
<path transform="matrix(1 0 0 -1 -15 916)" d="m-9e-4 -4e-4c2-7 5-14 10-20 3-3 6-6 9-8 6-5 6-11 4-18-3-13-10-25-17-37-5-8-9-16-11-25-1-7 0.4-13 4-19 10-15 23-24 40-27 13-2 27-1 40-0.1 8 0.6 16 2 23 2 5 0.4 10 1 15 4 6 3 9 6 6 18-3 12-10 23-16 34-6 12-13 23-24 32-8 7-17 12-26 16-7 4-15 7-22 11-7 3-7 10-8 16-2 9-4 18-10 26-3 4-6 5-11 5-3-0.4-5-3-6-6-0.7-2 0.3-4-1-5" fill="none" stroke="#9dabc7" stroke-linejoin="round" stroke-miterlimit="10" stroke-opacity=".5" stroke-width="2"/>
</g>
<g clip-path="url(#as)">
<path transform="matrix(1 0 0 -1 216 518)" d="m2e-4 -6e-4c-3-3-3-7-4-11-3-9-7-17-10-26-6-19 4-40 19-48 3-2 7-3 10-4 10-4 14-12 18-21 4-11 9-21 19-28 7-5 16-7 24-9 15-4 31-7 45-14 11-5 19-13 27-22 11-12 21-26 36-35 7-4 14-6 21-7 9-2 19-2 28-0.6 9 1 18 4 26 10 5 4 9 8 14 12 2 2 4 3 6 5 0.9 0.6 2 1 3 1 0.9-0.05 2-0.5 2-1 6-3 11-7 17-10 6-3 12-4 19-5 10-0.9 19 1 29 2 3 0.2 13 0.9 29-0.4 13-1 11-2 21-3 12-0.8 15 0.6 31 0.01 13-0.5 17-2 19-2 4-1 12-3 19-9 7-6 9-12 13-22 4-12 5-21 6-30 0.7-9 1-13-0.5-19-2-5-3-6-9-18-7-14-7-17-8-19-0.09-4 1-9 4-15 9-16 22-25 27-28 26-18 31-16 46-28 3-2 19-15 32-37 14-23 16-43 18-61 0.7-6 1-12-2-19-4-10-14-15-22-20-16-8-31-9-44-10-7-0.5-11-0.3-12-0.2-16 1-26 8-29 9-3 2-18 11-25 30-3 8-2 10-4 22-3 15-8 26-17 43-14 29-16 25-20 37-2 7-3 14-7 38-0.7 3-2 10-8 17-1 2-3 4-6 7-8 7-14 9-25 15-11 6-9 6-21 12-12 6-18 10-20 10-20-2-30-66-52-74-1-0.4-5-2-8-4-6-5-8-12-10-20-2-14 1-22 4-41 1-7 3-18 2-32-0.5-24-0.8-36-5-48 0 0-3-8-1-17 0.3-2 0.9-4 3-6 1-0.9 2-1 6-2 5-0.5 9-0.03 9-8e-3 11 0.4 26-177 52-181 1-0.2 8 4 21 11 19 11 20 13 28 16 12 5 13 2 25 8 15 6 21 13 22 15 3 4 4 7 8 14 8 15 10 16 16 27 9 17 6 22 18 45 4 9 7 13 11 17 6 5 12 6 25 9 13 3 21 2 36 2 5-0.07 11-0.3 18-3 7-3 10-6 10-7 0.7-0.8 3-4 4-9 2-8-0.9-15-2-18-8-21-3-24-12-45-5-12-9-20-18-27-6-4-8-3-19-9-12-6-21-11-28-20-4-6-2-6-11-34-5-17-7-21-8-23-6-11-10-11-19-22-11-14-19-30-23-40 0 0-5-11-17-23-0.5-0.5-1-1-2-2 0 0-2-1-5-1-12-0.02-22 8-22 8-10 8-29 18-58 33-30 11-30-36-0.5-36 0.2-4e-3 2-0.2 4-0.7 0 0 0.6-0.1 1-0.3 16-4 26-15 26-15 4-4 6-9 9-18 10-26 15-40 18-54 1-8 3-19 2-33-0.3-5-1-15-4-26-0.8-3-2-5-10-28-5-13-7-19-8-20-9-13-26-20-32-21-0.7-0.03-3-0.07-6-2-2-1-3-2-3-3-4-4-15-15-22-19-3-2-16-11-27-6-4 1-6 3-12 11-19 24-28 41-30 45-4 9-6 13-6 15-0.8 2-4 12-3 27 0.03 11 2 19 4 32 3 14 4 22 8 32 3 7 5 10 7 18 2 10 1 16 0.2 21-1 4-2 7-4 9-5 6-16 7-23 5-7-2-6-5-16-10-5-2-11-6-19-6-7-0.2-11 2-16 4-11 4-18 11-26 19-4 3-7 6-10 10-2 2-4 4-7 8-2 2-4 4-6 6-5 5-17 15-31 26-3 2-10 8-13 17-1 3-1 6-1 7-8e-3 3 0.5 8 6 17 5 8 7 8 15 20 2 2 3 4 5 8 4 6 6 8 8 10 3 4 7 5 22 11 15 6 14 5 15 6 13 7 19 18 25 29 6 11 4 11 13 28 5 10 7 12 11 21 0 0 7 17 7 27-0.3 4-2 11-3 12 0 0-1 2-3 5-8 10-26 19-26 19-5 2-14 7-27 9-6 0.9-12 1-12 1-7 0.6-13 0.7-20 3-0.3 0.07-1 0.3-2 0.6-3 1-6 2-13 5 0 0-4 2-10 4-0.5 0.2-2 0.5-3 0.3-1-0.1-2-0.6-4-2-6-4-8-10-8-11-8e-3 -0.03 0.01 0.04 0 0-0.5-1-5-13-12-23-1-2-3-4-5-6 0 0-1-1-2-2-8-7-19-9-19-9-2-0.4-4-0.8-7-0.6-5 0.2-9 2-15 5-3 2-3 2-5 3-2 0.7-7 3-11 2-6-0.4-9-4-11-6-2-2-30-27-52-31-12-2-22 1-31 5-20 7-21 17-44 29-13 7-25 10-33 12-19 5-15 1-34 6-6 1-12 3-18 0.3-1-0.5-5-3-7-7-0.5-1-0.8-2-1-9-0.2-4-0.3-6-0.3-8-0.08-8-5-16-8-22-4-6-17-28-38-35-16-5-24-8-27-9-6-1-14-3-24-0.3-6 2-11 5-13 7-7 5-8 8-18 20-12 14-16 17-19 18-4 3-10 6-17 4-5-1-8-4-12-7-5-5-8-10-11-16-4-8-6-14-6-16-2-7-2-13-3-21-0.4-8-0.7-15 0.06-22 0.6-6 3-29 18-49 6-7 10-11 14-20 1-4 4-10 4-19 0-4-0.5-5-0.4-9 0.2-7 0.2-11 3-15 2-2 5-5 14-6 12-2 17 0.2 26 0.2 0 0 25 0.1 46-19 0.9-0.9 3-3 5-6 0.7-1 3-6 1-11-1-3-4-5-6-5-12-6-23-15-26-18-2-2-6-8-14-22-4-7-10-18-16-26-3-4-4-6-6-8-10-11-16-24-15-39 0.05-2 0.2-3 1-5 1-2 3-3 5-4 14-7 19-21 12-36-7-15-11-19-16-31-3-6-4-10-4-14-0.6-7 0.9-12 2-14 5-17 23-33 26-35 9-7 21-13 45-25 6-3 13-6 22-7 3-0.3 12-0.9 21 3 8 3 13 9 22 24 16 27 23 49 25 56 6 20 9 30 5 42-1 5-3 7-3 13-0.2 11 6 16 6 27-0.1 1-0.4 4-0.9 8-0.8 5-2 9-2 9-1 5-5 15-14 24-8 9-11 7-28 20-9 6-13 10-17 15 0 0-8 11-7 25 0.1 2 0.6 5 2 7 2 2 5 2 9 1 8-1 13-5 17-7 3-1 16-9 31-7 3 0.3 11 1 18 7 1 1 5 4 8 9 2 3 3 6 5 22 1 12 1 13 2 17 1 5 3 11 8 17 4 5 9 7 11 9 11 6 21 6 30 6 6 0.08 9-0.5 16 0.1 8 0.6 11 0.9 14 3 5 4 6 11 6 18 0.9 10-1 13-1 25-0.3 10 0.8 17 2 22 1 8 3 17 8 28 1 2 9 18 23 28 4 3 7 4 11 5 6 1 10-0.3 14-2 0 0 11-3 20-12 0.6-0.7 1-2 2-3 1-3 0.7-7 0.2-9-2-9-9-19-9-19-3-5-2-5-9-38-4-20-5-22-6-24-3-6-6-7-15-20-5-8-7-11-7-15-0.02-5 2-9 6-14 5-7 10-14 19-18 6-3 13-2 27-1 15 1 16 3 24 2 3-0.5 14-2 22-10 6-6 8-14 11-25 2-7 3-16 3-25 0.05-18-4-31-7-43-2-7-6-20-15-35-3-6-8-14-13-27-0.8-2-0.8-2-4-11-10-26-9-25-10-26-4-18 5-40 19-48 4-2 5-1 10-4 8-5 12-11 18-21 15-24 16-25 19-28 3-3 6-4 24-9 33-10 36-9 45-14 9-5 15-11 27-22 18-18 21-27 36-35 2-0.9 10-5 21-7 5-1 15-3 28-0.6 10 2 19 6 28 11 4 3 8 6 12 10 3 3 5 6 10 6 3-0.5 6-2 9-4 8-5 17-10 27-10 11-0.8 21 1 32 2 0 0 14 0.8 29-0.4 3-0.3 6-0.5 9-1 2-0.4 3-0.7 6-1 0.8-0.1 3-0.4 6-0.6 7-0.4 12 0.08 21 0.2 1 0.01 4-0.04 10-0.1 7-0.1 12-0.2 18-2 0.1-0.04 0.4-0.1 0.7-0.2 8-2 15-6 19-9 6-5 9-12 13-22 4-12 5-21 6-30 0.7-9 1-13-0.5-19-2-5-3-6-9-18-7-14-7-17-8-19-0.1-6 2-10 4-15 1-3 8-14 27-28 4-3 9-6 19-12 22-13 21-11 27-16 18-13 27-29 32-37 2-3 6-10 9-19 7-19 9-35 9-42 0.3-9 0.5-13-2-19-4-10-14-15-22-20-16-8-31-9-44-10-7-0.5-11-0.3-12-0.2-16 1-26 8-29 9 0 0-18 11-25 30-1 3-2 5-2 5-0.9 4-0.8 5-1 10 0 0-0.7 2-1 7-1 9-7 24-17 43-6 11-8 17-11 20-1 2-4 5-7 11-1 2-2 5-2 7-2 8-3 14-4 22-1 8-2 11-3 16-3 10-6 15-8 17-2 3-4 5-6 7-3 2-6 5-25 15-2 0.8-4 2-7 4-3 2-4 2-6 4-3 2-6 3-8 4-12 6-18 10-20 10-18-0.1-30-66-52-74-1-0.4-5-2-8-4-6-5-8-12-10-20-2-14 1-22 4-41 1-7 3-18 2-32-0.5-24-0.8-36-5-48 0 0-3-8-1-17 0.3-2 0.9-4 3-6 1-0.9 2-1 6-2 5-0.5 9-0.02 9-4e-3 11 0.4 27-178 52-181 3-0.4 9 4 21 11 0 0 16 10 24 14 2 1 4 2 4 2 1 0.6 4 2 7 2 5 1 6 1 9 2 4 0.9 6 2 9 3 7 3 16 7 22 15 0.6 0.7 3 5 8 14 3 6 4 7 6 11 5 8 8 13 10 16 10 16 7 23 18 45 4 9 7 13 11 17 7 5 16 7 25 9 4 0.9 8 1 10 2 5 0.6 14 1 27 0.7 8-0.5 13-0.9 18-3 7-3 10-6 10-7 0.8-1 3-4 4-9 0.5-2 1-6-2-18-2-7-2-7-4-12-2-8-1-11-3-18-1-6-3-11-5-14-4-9-9-19-18-27-3-2-1-0.3-19-9-5-2-21-10-28-20-1-1-2-3-2-3-3-6-4-11-4-14-0.4-3-0.4-0.6-5-17 0 0-4-15-8-22-0.2-0.4-0.5-0.9-0.5-0.9s-2-4-4-7c-6-9-14-16-14-16-8-7-13-18-23-40 0 0-5-11-17-23-0.5-0.5-1-1-2-2 0 0-2-1-5-1-10-0.03-22 8-22 8-7 5-15 9-22 14-21 14-27 17-36 19-7 1-14 3-17-0.7-8-8 13-35 16-35 0.1-0.02 2-0.3 4-0.7 0 0 0.6-0.1 1-0.3 15-4 26-15 26-15 7-7 9-14 9-18 4-17 13-27 18-54 2-11 2-18 3-23 0.1-5-0.02-8-0.1-10-0.4-7-1-16-4-26" fill="none" stroke="#9dabc7" stroke-linejoin="round" stroke-miterlimit="10" stroke-opacity=".5"/>
</g>
<g clip-path="url(#ah)">
<path transform="matrix(1 0 0 -1 249 518)" d="m-2e-3 -6e-4c0.3-5-0.8-10 0.5-14 2-7 5-12 11-16 7-6 15-12 23-18 9-7 20-11 31-15 4-1 8-3 11-6 5-5 7-10 4-16-2-4-5-8-6-13-6-14-2-24 12-30 7-3 14-4 22-6 8-2 15-7 21-13 8-7 16-15 25-21 11-7 21-13 33-17 8-2 15-0.4 22 4 5 4 10 8 15 11 4 3 9 6 14 8 2 1 5 2 7 3 3 1 7 2 10-0.9 9-8 20-15 32-18 6-2 12-3 19-3 7-0.2 14 0.6 22 0.3 0.9-0.04 2-0.09 3-0.2 13-1 24-4 34-6 15-4 18-5 31-7 3-0.5 8-1 17-2 15-2 22-2 28-3 10-0.6 14-0.6 21-2 7-2 10-2 13-5 3-3 6-7 6-27 0.4-21-3-23 0.03-35 1-6 3-14 10-21 3-3 7-5 20-10 15-6 17-5 27-9 12-5 25-11 37-20 6-4 9-7 11-10 2-4 6-10 6-32 0.08-13-1-24-3-38-2-16-3-15-3-24-1-15-2-25 2-37 1-5 6-17 18-27 6-5 12-7 13-7 8-3 15-2 21-2 12 1 20 5 22 6 5 3 10 5 12 10 2 4 2 8 2 10-0.3 5-2 6-4 12-2 7-4 14-3 20 1 4 3 7 5 10 3 4 5 6 12 12 5 4 7 6 9 8 8 9 11 21 13 32 2 8 2 14 2 18 0.6 12-0.7 17-1 20-0.6 2-1 5-3 7-4 8-12 12-15 14-19 10-41 19-59 30-4 3-8 6-12 11-7 10-8 21-9 25-0.2 3-1 20 8 36 0 0 5 9 8 18 0.4 2 1 5 0.2 8 0 0-0.5 2-2 4-3 5-15 12-29 10-6-0.9-12-4-26-10-3-1-5-2-8-3-6-2-12-3-18-3-12-0.3-12 0.9-27 1-12 0.1-18 0.1-20 0.05-0.7-0.04-2-0.1-4 8e-3 -2 0.1-8 0.6-12 4-3 2-4 5-5 6-7 15-11 33-11 33-5 24-6 26-7 33-2 11-2 17-2 20-4e-3 2 0.06 9 1 19 1 8 3 20 8 34 3 9 8 19 19 40 2 3 3 6 4 8" fill="none" stroke="#9dabc7" stroke-linejoin="round" stroke-miterlimit="10" stroke-opacity=".5" stroke-width="2"/>
</g>
<g clip-path="url(#w)">
<path transform="matrix(1 0 0 -1 37 999)" d="m7e-4 1e-3c-8-2-14-6-19-13-12-16-0.4-30 13-34 7-2 15-2 21 1 14 6 19 18 10 32-6 9-14 14-25 14z" fill="none" stroke="#9dabc7" stroke-linejoin="round" stroke-miterlimit="10" stroke-opacity=".5" stroke-width="2"/>
</g>
<g clip-path="url(#l)">
<path transform="matrix(1 0 0 -1 -41 818)" d="m-8e-5 1e-3c-7-3-9-10-11-16-5-15-9-31-11-47-4-27 3-50 20-71 4-5 8-11 10-18 3-9 0.2-17-3-25-4-9-7-17-8-27-0.7-6 0.7-12 3-17 8-19 22-32 40-42 7-4 16-6 25-7 11-2 22-2 33-4 10-2 18-5 27-9 14-7 28-14 42-20 19-8 39-4 50 17 4 7 7 14 9 22 3 11-2 20-9 27-7 6-14 10-22 14-17 9-31 23-41 39-4 6-8 13-11 20-6 14-17 25-29 35-13 11-22 25-29 40-7 17-14 34-26 49-4 5-9 10-14 13-11 7-22 15-32 23-4 3-8 5-12 6" fill="none" stroke="#9dabc7" stroke-linejoin="round" stroke-miterlimit="10" stroke-opacity=".5" stroke-width="2"/>
</g>
<g clip-path="url(#d)">
<path transform="matrix(1 0 0 -1 63 800)" d="m-2e-4 7e-4c-3-2-7-1-11-3-16-7-18-18-14-32 4-14 9-28 15-42 5-12 11-25 18-36 7-12 18-20 28-29 6-6 11-12 15-19 4-7 7-15 11-23 11-22 28-35 52-40 9-2 19-3 28-5 6-1 12-4 18-6 13-6 26-10 41-12 6-0.7 12-3 18-1 6 2 9 5 9 12 4e-3 10-4 19-7 28-4 11-11 21-14 32-2 9-4 17-6 26-4 14-12 27-21 38-8 10-11 21-13 33-2 10-4 19-6 29-1 8-2 16-4 24-4 18-14 25-32 26-12 0.6-23-2-35-6-18-5-35-6-53 0.05-12 4-24 7-36 6" fill="none" stroke="#9dabc7" stroke-linejoin="round" stroke-miterlimit="10" stroke-opacity=".5" stroke-width="2"/>
</g>
<g clip-path="url(#c)">
<path transform="matrix(1 0 0 -1 313 774)" d="m-6e-5 1e-3c-8-8-17-14-26-21-7-5-14-11-18-20-7-15-6-24 4-36 12-15 23-30 31-47 7-14 17-25 29-34 11-8 19-18 22-32 3-12 10-23 17-33 4-6 8-12 11-18 9-13 22-11 32-3 8 7 11 15 6 27-6 17-13 34-25 48-9 10-8 21-3 32 8 22 19 43 31 63 4 6 8 12 10 20 2 8 0.07 14-6 19-7 6-16 8-25 11-6 2-12 6-17 10-7 6-13 13-21 18-6 4-11 7-18 9" fill="none" stroke="#c57a3c" stroke-dasharray="19.967 4.992 6.989 4.992" stroke-linejoin="round" stroke-opacity=".8" stroke-width="2"/>
</g>
<g clip-path="url(#b)">
<path transform="matrix(1 0 0 -1 1e3 518)" d="m2e-3 -6e-4c-8-13-19-22-29-32-3-3-5-6-6-9-3-7-0.2-12 4-17 2-2 4-4 6-7 9-9 17-18 24-28 6-9 13-16 21-23 11-10 20-21 28-34 6-10 14-19 24-24 4-2 9-3 14-3 5 0.2 11-0.2 16 0.07 18 0.8 33-6 46-17 18-15 36-29 54-43 11-8 24-12 37-15 13-2 26-4 38-9 7-3 13-6 18-10 7-6 8-14 5-22-5-14-12-26-23-36-9-8-19-16-25-28-3-6-5-12-6-19-1-8 0.4-16 3-24 4-12 6-25 10-38 3-9 7-18 11-27 7-18 6-36-6-52-10-14-24-24-38-34-9-7-20-4-30-0.2-14 6-25 17-32 30-8 14-17 27-26 40-6 10-11 20-15 30-4 9-9 18-14 27-5 9-10 18-15 27-9 15-17 31-26 46-6 9-10 19-12 30-1 11-0.2 22 0.9 34 0.9 9 3 19 2 28-0.5 11-7 20-16 23-6 2-11 1-15-2-20-12-42-18-64-24-7-2-14-3-21-3-10-0.1-19 3-28 6-8 3-16 5-25 5-9-0.3-18 0.1-26-0.1-9-0.2-18 2-26 3-14 2-27 0.7-40-4-11-4-18-12-23-22-1-2-3-4-4-6-4-7-12-7-19-8-8-1-15-3-23-4-15-2-31-2-46 4-10 4-19 9-27 16-11 9-17 22-10 38 4 9 9 17 14 25 3 7 6 14 6 22 0.3 10-3 19-13 24-9 5-18 7-28 9-11 2-22 3-34 6-11 2-22 4-32-0.8-6-3-13-6-19-8-15-4-27 3-29 18-0.7 7 0.05 14 1 20 3 13 1 25-2 37-3 10-5 20-5 31 0.9 16 13 35 28 39 6 2 12 0.5 18-2 24-10 43-26 54-51 5-12 11-23 19-34 8-11 18-20 29-28 10-6 19-13 28-21 11-10 25-15 38-22 9-4 19-9 27-16 8-7 10-17 11-27 1-9 3-18 10-24 5-5 8-4 11 2 5 9 6 20 9 30 3 10 4 19 8 29 4 10 12 18 20 24 8 6 15 12 18 22 2 8 1 16-0.7 24-3 12-4 23-0.8 35 5 16 16 26 32 29 11 2 23 4 34 7 15 4 25 14 27 30 0.3 2 2 3 1 4" fill="none" stroke="#9dabc7" stroke-linejoin="round" stroke-miterlimit="10" stroke-opacity=".5" stroke-width="2"/>
</g>
<g clip-path="url(#a)">
<path transform="matrix(1 0 0 -1 1e3 916)" d="m1e-3 -4e-4c2-7 5-14 10-20 3-3 6-6 9-8 6-5 6-11 4-18-3-13-10-25-17-37-5-8-9-16-11-25-1-7 0.4-13 4-19 10-15 23-24 40-27 13-2 27-1 40-0.1 8 0.6 16 2 23 2 5 0.4 10 1 15 4 6 3 9 6 6 18-3 12-10 23-16 34-6 12-13 23-24 32-8 7-17 12-26 16-7 4-15 7-22 11-7 3-7 10-8 16-2 9-4 18-10 26-3 4-6 5-11 5-3-0.4-5-3-6-6-0.6-2 0.3-4-1-5" fill="none" stroke="#9dabc7" stroke-linejoin="round" stroke-miterlimit="10" stroke-opacity=".5" stroke-width="2"/>
</g>
<g clip-path="url(#bc)">
<path transform="matrix(1 0 0 -1 551 1e3)" d="m1e-3 -2e-3c4-0.6 10-1 17-2 23-2 30-1 34-1 11 1 21 5 30 13 9 8 13 17 15 29 4 17-4 30-12 43-9 15-18 30-26 46-3 5-5 11-8 16-2 5-6 8-11 10-4 2-8 0.06-11-1-13-6-23-12-23-12-6-4-20-14-29-23-27-26-27-109 24-118z" fill="none" stroke="#9dabc7" stroke-linejoin="round" stroke-miterlimit="10" stroke-opacity=".5" stroke-width="2"/>
</g>
<g clip-path="url(#bb)">
<path transform="matrix(1 0 0 -1 551 1e3)" d="m1e-3 7e-4c5-4 20-16 38-15 3 0.2 9 0.5 14 4 4 3 7 8 8 14 2 12-2 23-9 32-9 12-22 16-32 20-7 2-14 3-18 4-32-10-17-50 0-59z" fill="none" stroke="#9dabc7" stroke-linejoin="round" stroke-miterlimit="10" stroke-opacity=".5" stroke-width="2"/>
</g>
<g clip-path="url(#ba)">
<path transform="matrix(1 0 0 -1 732 977)" d="m1e-3 -1e-3c-6-3-8-8-6-13 3-8 10-12 15-11 6 1 9 9 6 14-3 6-9 9-15 10" fill="none" stroke="#9dabc7" stroke-linejoin="round" stroke-miterlimit="10" stroke-opacity=".5" stroke-width="2"/>
</g>
</svg>
