<svg viewBox="0 0 1050.7 1025.9" xmlns="http://www.w3.org/2000/svg"><defs><clipPath id="y"><path d="m742 490h308v507h-308z"/></clipPath><clipPath id="x"><path d="m1e3 903h21v94h-21z"/></clipPath><clipPath id="v"><path d="m831 60h219v686h-219z"/></clipPath><clipPath id="u"><path d="m508 899h141v98h-141z"/></clipPath><clipPath id="t"><path d="m531 958h82v39h-82z"/></clipPath><clipPath id="s"><path d="m247 303h711v694h-711z"/></clipPath><clipPath id="r"><path d="m724 975h26v22h-26z"/></clipPath><clipPath id="q"><path d="m985 816h65v181h-65z"/></clipPath><clipPath id="p"><path d="m686 936h100v61h-100z"/></clipPath><clipPath id="o"><path d="m0 0.1h13v48h-13z"/></clipPath><clipPath id="n"><path d="m0 0.1h13v46h-13z"/></clipPath><clipPath id="m"><path d="m12 0.1h0.5v23h-0.5z"/></clipPath></defs><g clip-path="url(#y)"><path transform="matrix(1 0 0 -1 1e3 519)" d="m-1e-3 1e-3c-14-17-24-28-29-32-1-1-4-4-6-9-3-7-0.2-12 4-17 2-2 4-4 6-7 9-9 17-18 24-28 6-9 13-16 21-23 11-10 20-21 28-34 6-10 14-19 24-24 4-2 9-3 14-3 5 0.2 11-0.2 16 0.07 18 0.8 33-6 46-17 18-15 36-29 54-43 11-8 24-12 37-15 13-2 26-4 38-9 7-3 13-6 18-10 7-6 8-14 5-22-5-14-12-26-23-36-9-8-19-16-25-28-3-6-5-12-6-19-1-8 0.4-16 3-24 4-12 6-25 10-38 3-9 7-18 11-27 7-18 6-36-6-52-10-14-24-24-38-34-9-7-20-4-30-0.2-14 6-25 17-32 30-8 14-17 27-26 40-6 10-11 20-15 30-4 9-9 18-14 27-5 9-10 18-15 27-9 15-17 31-26 46-6 9-10 19-12 30-1 11-0.2 22 0.9 34 0.9 9 3 19 2 28-0.5 11-7 20-16 23-6 2-11 1-15-2-20-12-42-18-64-24-7-2-14-3-21-3-10-0.1-19 3-28 6-8 3-16 5-25 5-9-0.3-18 0.1-26-0.1-9-0.2-18 2-26 3-14 2-27 0.7-40-4-11-4-18-12-23-22-1-2-3-4-4-6-4-7-12-7-19-8-8-1-15-3-23-4-15-2-31-2-46 4-10 4-19 9-27 16-11 9-17 22-10 38 4 9 9 17 14 25 3 7 6 14 6 22 0.3 10-3 19-13 24-9 5-18 7-28 9-11 2-22 3-34 6-11 2-22 4-32-0.8-6-3-13-6-19-8-15-4-27 3-29 18-0.7 7 0.05 14 1 20 3 13 1 25-2 37-3 10-5 20-5 31 0.9 16 13 35 28 39 6 2 12 0.5 18-2 24-10 43-26 54-51 5-12 11-23 19-34 8-11 18-20 29-28 10-6 19-13 28-21 11-10 25-15 38-22 9-4 19-9 27-16 8-7 10-17 11-27 1-9 3-18 10-24 5-5 8-4 11 2 5 9 6 20 9 30 3 10 4 19 8 29 4 10 12 18 20 24 8 6 15 12 18 22 2 8 1 16-0.7 24-3 12-4 23-0.8 35 5 16 16 26 32 29 11 2 23 4 34 7 8 2 15 6 19 12 5 6 7 16 8 18 0.5 2 0.9 3 1 4 10 45 89 26 71 0z" fill="none" stroke="#c57a3c" stroke-dasharray="6.986 4.99 6.986 4.99" stroke-linejoin="round" stroke-opacity=".8" stroke-width="2"/></g><g clip-path="url(#x)"><path transform="matrix(1 0 0 -1 1e3 916)" d="m-2e-3 -1e-3c-0.03-1 0.3-2 0.6-3 2-6 5-12 9-16 3-3 6-6 9-8 6-5 6-11 4-18-3-13-10-25-17-36-5-8-9-16-11-25-1-7 0.4-13 4-19 10-15 23-24 40-27 13-2 27-1 40-0.1 8 0.6 16 2 23 2 5 0.4 10 1 15 4 6 3 9 6 6 18-3 12-10 23-16 34-6 12-13 23-24 32-8 7-17 12-26 16-7 4-15 7-22 11-7 3-7 10-8 16-2 9-4 18-10 26-3 4-6 5-11 5-2-0.3-4-1-5-3-0.8-1-0.7-2-1-4-0.3-1-1-3-1-4z" fill="none" stroke="#9dabc7" stroke-linejoin="round" stroke-miterlimit="10" stroke-opacity=".5" stroke-width="2"/></g><g clip-path="url(#v)"><path transform="matrix(1 0 0 -1 2e3 716)" d="m1e-3 2e-3c-8-5-14-11-22-17-10-8-21-12-34-12-7 0.3-14-0.5-22 0.9-7 1-14 3-21 7-15 9-25 22-36 35-8 9-17 17-27 22-14 7-30 10-45 14-8 2-17 4-24 9-10 7-15 17-19 28-4 9-8 17-18 21-3 1-7 3-10 4-12 6-20 20-21 33-0.6 8 2 15 5 23 3 9 7 18 11 26 5 11 11 21 15 32 4 11 8 22 14 33 7 13 8 28 7 43-0.6 8-2 17-3 25-3 19-11 31-33 35-8 1-16-0.9-24-2-9-1-19-4-27 1-13 7-22 18-25 32-1 6 3 11 7 15 5 6 11 13 15 20 3 8 5 16 6 24 2 13 3 26 9 38 3 6 7 12 9 19 2 5 0.6 9-2 12-9 9-20 14-34 14-4-0.3-8-2-11-5-9-8-18-17-23-28-4-9-7-18-8-28-0.8-7-2-15-2-22 0.9-8 0.1-16 1-25 1-7 0.4-14-6-18-4-2-9-3-14-3-5-0.2-11 0.3-16-0.1-10-0.7-20-1-30-6-11-5-17-14-19-26-1-6-2-11-2-17-0.6-8-1-16-5-22-6-10-14-15-25-16-11-1-21 2-31 7-5 3-11 5-17 7-7 2-11-1-11-8 0.1-18 7-32 23-41 10-6 20-11 28-20 10-11 20-28 15-44-2-5-4-10-4-16-0.6-8 3-15 4-23 3-14-2-27-5-40-2-6-9-29-25-56-9-15-15-20-22-24-9-4-18-3-21-3-9 0.7-16 4-22 7-24 12-36 18-45 25-3 2-21 18-26 35-0.6 2-2 7-2 14 0.3 4 1 7 4 14 5 12 13 23 19 35 1 2 2 4 2 6 0.4 4-1 7-4 10-6 7-15 10-19 20-4 13 3 27 6 32 4 8 6 7 16 19 4 5 8 12 16 26 12 20 11 20 14 22 3 2 14 12 26 18 1 0.7 4 2 6 5 2 4-0.7 9-1 11-2 3-4 5-5 6-21 19-46 19-46 19-9-0.04-14-2-26-0.2-9 2-12 4-14 6-2 3-3 8-3 15-0.1 5 0.4 6 0.4 9 0 8-3 15-4 19-4 9-9 13-14 20-16 20-18 43-18 49-0.8 8-0.4 15-0.06 22 0.4 9 0.7 14 3 21 0.5 2 2 8 6 16 3 6 6 11 11 16 3 3 7 6 12 7 7 1 13-2 17-4 3-2 7-5 19-18 10-12 11-15 18-20 2-2 7-5 13-7 9-2 16-1 24 0.3 6 1 16 3 27 9 0 0 23 12 38 35 3 4 8 13 8 22 0.03 3 0.1 5 0.3 8 0.4 7 0.7 8 1 9 2 4 6 7 7 7 6 3 13 1 18-0.3 19-5 15-0.8 34-6 8-2 19-5 33-12 23-12 24-22 44-29 9-3 19-7 31-5 23 4 51 29 52 31 2 2 6 5 11 6 4 0.3 9-1 11-2 2-0.8 2-1 5-3 6-3 10-5 15-5 3-0.1 5 0.2 7 0.6 11 2 17 7 19 9 4 3 6 6 7 8 4 6 7 12 12 23 0 0 3 7 8 11 2 1 3 2 4 2 1 0.2 3-0.2 3-0.4 5-2 8-3 10-4 0 0 5-3 13-5 4-1 6-1 22-3 8-0.9 12-1 12-1 2-0.4 13-2 27-9 13-6 22-13 26-19 2-2 3-5 3-5 3-5 3-10 3-12 0.4-8-2-17-7-27-4-9-6-11-11-21-9-17-7-17-13-28-6-11-12-22-25-29-1-0.7-0.07 0.06-15-6-15-6-18-8-22-11-2-2-4-4-8-10-3-4-4-5-5-8-9-12-10-12-15-20-6-9-6-14-6-17 0-0.9 0.06-3 1-7 3-9 10-15 13-17 0 0 15-12 31-26 11-10 8-10 23-24 10-9 17-15 26-19 9-4 15-4 16-4 8 0.2 14 4 19 6 10 5 9 8 16 10 7 2 18 1 23-5 2-2 3-5 4-9 1-4 2-11-0.2-21-2-8-4-11-7-18-4-10-6-18-8-32-2-12-4-20-4-32-0.04-16 3-25 4-27 0.6-2 2-6 6-15 8-15 15-30 30-45 3-3 7-7 12-11" fill="none" stroke="#9dabc7" stroke-linejoin="round" stroke-miterlimit="10" stroke-opacity=".5"/></g><g clip-path="url(#u)"><path transform="matrix(1 0 0 -1 551 1e3)" d="m1e-3 6e-5c4-0.6 10-1 17-2 23-2 30-1 34-1 11 1 21 5 30 13 9 8 13 17 15 29 4 17-4 30-12 43-9 15-18 30-26 46-3 5-5 11-8 16-2 5-6 8-11 10-4 2-8 0.06-11-1-13-6-23-12-23-12-6-4-20-14-29-23-27-26-27-109 24-118z" fill="none" stroke="#9dabc7" stroke-linejoin="round" stroke-miterlimit="10" stroke-opacity=".5" stroke-width="2"/></g><path transform="matrix(1 0 0 -1 936 521)" d="m-2e-3 2e-3c0.1-7-3-13-6-20-3-7-5-13-8-20-0.8-2-2-5-2-8-3-11-3-21 2-32 5-9 13-15 23-16 17-3 32 3 45 14 13 11 23 24 27 41 2 11 2 23-0.02 34-0.4 2-0.9 5-2 7-2 3-4 5-7 7-7 5-13 11-19 18-6 6-10 13-17 17-9 5-21 9-30 3-7-4-9-10-11-16-1-3-1-6-0.8-9 0.9-7 6-13 6-20 8e-3 -0.2 0.01-0.3 0.02-0.5z" fill="none" stroke="#9dabc7" stroke-linejoin="round" stroke-miterlimit="10" stroke-opacity=".5" stroke-width="2"/><path transform="matrix(1 0 0 -1 552 785)" d="m2e-3 2e-3c26-6 37-5 42-3 0.7 0.3 3 1 6 1 5 0.07 9-2 13-5 6-4 13-8 20-10 11-3 25-0.2 31 9 7 10 3 26-8 31-9 4-18 1-26-2-9-4-16-9-24-15-4-3-8-3-12-1-8 4-21 8-30 8-3-0.05-8-0.05-13-3-4-2-6-6 0-9z" fill="none" stroke="#9dabc7" stroke-linejoin="round" stroke-miterlimit="10" stroke-opacity=".5" stroke-width="2"/><g clip-path="url(#t)"><path transform="matrix(1 0 0 -1 551 1e3)" d="m1e-3 -3e-4c5-4 20-16 38-15 3 0.2 9 0.5 14 4 4 3 7 8 8 14 2 12-2 23-9 32-9 12-22 16-32 20-6 2-13 5-19 4-7-1-13-7-16-14-3-6-2-14-0.5-20 1-5 4-10 7-15 3-4 7-7 10-10z" fill="none" stroke="#9dabc7" stroke-linejoin="round" stroke-miterlimit="10" stroke-opacity=".5" stroke-width="2"/></g><g clip-path="url(#s)"><path transform="matrix(1 0 0 -1 258 491)" d="m2e-3 2e-3c8 17 11 26 13 28 7 10 12 14 20 28 3 5 5 9 5 14-0.06 6-2 7-6 16-4 10-9 20-6 30 0.6 2 2 6 6 9 4 3 8 3 9 3 8 0.2 15-5 17-7 14-11 30-22 31-24 18-13 45-24 57-28 2-0.7 8-3 13-8 0.7-0.8 3-4 6-11 3-8 3-14 3-19 0.1-19 0.04-27 0.1-33 0.08-5 0.4-15 2-27 3-24 8-32 11-36 2-3 2-3 9-9 5-6 16-18 27-33 6-9 10-16 20-24 3-2 4-3 6-4 9-4 19 3 25 8 6 4 11 9 16 14 4 4 7 9 12 11 3 0.9 6 0.8 9 0.7 13-0.5 28-0.9 38 8 5 5 9 12 11 19 3 12 6 24 7 36 0.4 3 1 7 2 9 2 5 4 10 6 16 2 5 4 11 5 16 0.4 2 0.8 4 1 5 1 4 2 8 4 13 4 14 5 29 1 43-3 10-6 20-8 30-2 12 0.6 22 6 32 3 5 7 6 13 7 4 0.1 8 0.2 12 1 17 4 31 12 42 26 4 5 8 11 13 16 10 9 21 12 35 10 13-1 23-6 31-15 10-11 18-23 23-37 6-15 4-29-6-42-11-14-24-26-38-36-14-11-22-24-22-42-0.02-3-0.08-3 0.3-15 0.6-17 0.6-21-2-27-1-3-3-5-4-8-8-13-15-29-19-40-5-14-7-26-8-34-0.8-6-2-11-1-19 0.07-9 1-17 2-20 0.2-2 0.4-3 0.7-4 0.7-4 2-13 6-29 0.7-3 2-6 3-11 3-10 5-16 8-22 2-4 4-6 5-6 0 0 4-4 12-4 1-0.08 2-0.08 2-0.08 1 0 2 0.05 2 0.07 1 0.09 6 0.3 20-0.05 5-0.1 8-0.2 10-0.3 4-0.3 6-0.5 9-0.7 4-0.1 7-0.05 8-0.02 0.8 0.03 11 0.4 18 3 1 0.4 2 0.9 2 0.9 3 1 5 2 6 3 18 9 26 10 26 10 14 2 26-5 29-10 1-2 2-4 2-4 0.3-1 0.7-4-0.2-8-1-8-5-14-8-18-0.02-0.04 0.02 0.03-4e-3 0-10-17-8-36-8-36 0.5-5 2-15 9-25 4-5 8-8 12-11 18-12 39-21 59-30 3-2 11-6 15-14 1-3 2-5 3-7 2-7 2-12 1-20-0.2-4-0.6-8-1-11-0.02-0.2-0.5-4-1-7-2-10-5-22-13-32-1-2-4-4-9-8-7-6-9-8-12-12-2-3-4-6-5-10-2-7 0.2-13 3-20 2-6 3-8 4-12 0.1-2 0.4-6-2-10-2-5-7-8-12-10-2-1-10-5-22-6-6-0.5-13-1-21 2-1 0.4-7 2-13 7-12 10-16 22-18 27-4 12-3 21-2 37 0.7 9 1 8 3 24 2 13 2 22 3 38 0 0 1 19-5 30-0.5 0.9-1 2-1 2-4 6-9 9-11 10-18 11-27 17-37 20-3 1-8 2-16 5-5 2-8 3-11 4-10 4-16 6-20 10-7 7-9 17-10 21-0.6 3-0.8 4-1 6-1 12 0.7 18 1 28 0.2 11 0.5 21-6 27-3 2-6 3-13 5-7 2-11 2-21 2-12 0.8-9 1-28 3-4 0.4-10 0.8-17 2-2 0.2-4 0.7-8 2-10 2-13 3-22 6-17 4-27 5-34 6-1 0.09-3 0.2-3 0.2-10 0.5-16-0.3-22-0.3-9-0.09-16 2-19 3-13 4-29 15-32 18-0.3 0.3-1 1-2 1-2 0.7-4 0.5-8-0.6-5-1-7-3-7-3-8-4-14-8-14-8-8-6-8-7-15-11-6-4-10-5-12-5-4-0.6-8 0.04-10 0.7-17 4-33 17-33 17-13 9-11 11-25 21-9 7-14 10-21 13-9 3-13 2-22 6-5 3-12 6-14 12-3 7 0.6 15 2 17 2 5 4 6 6 13 2 5 2 7 1 9-0.8 4-3 6-5 7-5 4-10 5-11 6-11 3-20 8-31 15-3 2-10 7-23 18-2 2-5 4-8 9-0.6 1-2 4-3 7-2 6-1 11-0.5 14 2 11 6 20 9 27z" fill="none" stroke="#9dabc7" stroke-linejoin="round" stroke-miterlimit="10" stroke-opacity=".5" stroke-width="2"/></g><path transform="matrix(1 0 0 -1 711 518)" d="m1e-3 9e-4c-0.08-0.4-0.2-0.9-0.3-1-1-6-6-11-9-16-5-7-13-15-24-22-13-8-25-2-32 9-5 8-9 23-5 33 4 9 10 16 13 25 3 7 4 12 6 16 3 12 6 21 6 33 0.2 10-1 10-0.8 20 0.5 7 1 14 6 21 1 1 3 3 12 10 17 12 20 11 29 20 3 3 4 4 11 10 6 5 9 8 11 9 3 2 13 9 22 6 11-3 16-18 16-29-0.6-15-12-25-16-29-4-4-10-8-10-8-6-4-7-5-14-9-7-5-9-8-10-9-2-3-3-5-5-9-4-10-7-21-8-32-0.4-5-0.3-11 0.4-16 0.7-5 3-10 4-15 0.7-5 0.07-10-0.8-15z" fill="none" stroke="#9dabc7" stroke-linejoin="round" stroke-miterlimit="10" stroke-opacity=".5" stroke-width="2"/><path transform="matrix(1 0 0 -1 646 664)" d="m2e-4 1e-3c0.05-5 4-11 10-11 7-0.2 11 6 8 13-1 2-2 4-4 6-2 2-5 3-8 2-4-2-6-6-6-10z" fill="none" stroke="#9dabc7" stroke-linejoin="round" stroke-miterlimit="10" stroke-opacity=".5" stroke-width="2"/><path transform="matrix(1 0 0 -1 571 519)" d="m-2e-3 8e-4c-3-7-9-12-18-15-8-3-16-5-23-11-8-7-19-20-31-15-2 0.9-4 3-9 12-4 8-9 18-13 29-2 6-2 13-2 19 1 8 0.04 15 0.08 23 0.04 9 2 18 9 24 6 5 15 5 23 5 14-0.04 29-0.6 41-8 9-5 16-13 20-23 4-9 5-20 5-30-0.3-4-1-7-3-11zm0 0" fill="none" stroke="#c57a3c" stroke-dasharray="20.418 5.104 7.146 5.104" stroke-linecap="round" stroke-linejoin="round" stroke-opacity=".8" stroke-width="2"/><path transform="matrix(1 0 0 -1 894 868)" d="m6e-4 7e-4c-13-0.8-17-15-18-25-1-9 5-17 14-18 5-0.8 10 1 14 4 7 5 12 12 11 22-1 9-10 16-18 17-1 0.2-2 0.3-3 0.2z" fill="none" stroke="#9dabc7" stroke-linejoin="round" stroke-miterlimit="10" stroke-opacity=".5" stroke-width="2"/><g clip-path="url(#r)"><path transform="matrix(1 0 0 -1 732 977)" d="m-6e-4 -2e-4c-0.5-0.1-0.9-0.3-1-0.6-4-3-6-7-4-12 3-8 10-12 15-11 6 1 9 9 6 14-2 3-4 6-7 7-2 1-6 3-9 2z" fill="none" stroke="#9dabc7" stroke-linejoin="round" stroke-miterlimit="10" stroke-opacity=".5" stroke-width="2"/></g><g clip-path="url(#q)"><path transform="matrix(1 0 0 -1 1e3 818)" d="m-1e-3 -7e-4c-7-3-9-10-11-16-5-15-9-31-11-47-4-27 3-50 20-71 4-5 8-11 10-18 3-9 0.2-17-3-25-4-9-7-17-8-27-0.7-6 0.7-12 3-17 8-19 22-32 40-42 7-4 16-6 25-7 11-2 22-2 33-4 10-2 18-5 27-9 14-7 28-14 42-20 19-8 39-4 50 17 4 7 7 14 9 22 3 11-2 20-9 27-7 6-14 10-22 14-17 9-31 23-41 39-4 6-8 13-11 20-6 14-17 25-29 35-13 11-22 25-29 40-7 17-14 34-26 49-4 5-9 10-14 13-11 7-22 15-32 23-4 3-8 5-12 6z" fill="none" stroke="#9dabc7" stroke-linejoin="round" stroke-miterlimit="10" stroke-opacity=".5" stroke-width="2"/></g><path transform="matrix(1 0 0 -1 788 751)" d="m7e-4 1e-3c-11-1-22-6-26-18-3-10-1-18 9-22 11-5 22-8 33-8 12-0.3 17 4 21 15 3 7 3 15 0.9 22-2 6-7 8-13 9-8 1-17 2-26 2z" fill="none" stroke="#9dabc7" stroke-linejoin="round" stroke-miterlimit="10" stroke-opacity=".5" stroke-width="2"/><path transform="matrix(1 0 0 -1 940 722)" d="m-9e-4 1e-3c-6-0.8-12-6-15-11-4-6-8-12-12-18-9-16 0.3-27 15-31 18-5 34 8 34 27-0.2 9-1 17-6 25-3 5-9 9-15 8-0.1-0.02-0.2-0.03-0.4-0.04z" fill="none" stroke="#9dabc7" stroke-linejoin="round" stroke-miterlimit="10" stroke-opacity=".5" stroke-width="2"/><g clip-path="url(#p)"><path transform="matrix(1 0 0 -1 696 938)" d="m2e-3 -8e-4c-1-0.4-3-1-4-2-5-4-5-10-5-16 0.7-13 4-26 7-38 4-14 8-28 19-38 10-9 22-12 36-10 12 2 21 7 29 16 4 4 6 10 6 15 0.7 27-12 46-34 60-8 5-16 7-24 10-8 2-16 3-24 3-2 0.07-4-0.07-6-0.6z" fill="none" stroke="#9dabc7" stroke-linejoin="round" stroke-miterlimit="10" stroke-opacity=".5" stroke-width="2"/></g></svg>