<svg preserveAspectRatio="xMidYMid slice" viewBox="0 0 5e3 3333" xmlns="http://www.w3.org/2000/svg"><rect width="5e3" height="3333" fill="#26363b"/><g fill="none" stroke="#9dabc7" stroke-linecap="round" stroke-linejoin="round" stroke-width="8"><path d="m603 3334-0.92-2.3-0.85-2.3-0.78-2.2-0.7-2.3-0.64-2.3-0.56-2.2-0.5-2.3-0.43-2.2-0.36-2.3-0.3-2.3-0.24-2.2-0.17-2.3-0.11-2.2-0.06-2.3 0.01-2.2 0.06-2.3 0.11-2.3 0.17-2.2 0.5-4.5 0.69-4.5 0.89-4.5 1.1-4.5 1.2-4.4 1.4-4.5 1.6-4.5c18-48 54-74 102-87 19-5 39-6.7 58-6 20 0.8 34 11 46 26 10 13 20 26 34 35 14 9.9 28 13 43 2.9 27-18 54-37 74-64 8.3-11 14-25 11-39-3.6-19-16-28-36-29-28-0.9-52 10-74 27-7 5.4-14 11-23 13-16 4.5-24 3.8-33-8.4-19-24-20-70 7.9-91 8.8-6.8 19-11 29-12 27-5.2 46-20 61-42 20-30 45-55 74-75 9.8-6.7 18-15 28-22 13-8.5 28-10 42-12 19-1.7 34-10 43-26 12-21 26-40 40-60 12-17 17-37 25-56 13-28 29-54 44-80 8.1-14 22-18 38-16 19 2.2 38 5 55 14 15 8.1 21 18 17 31-2.7 9.3-11 14-18 19-14 8.5-25 19-32 34-8.6 19-16 39-20 59-2.4 14-1.4 29 1.6 43 5.3 26 13 51 27 73 11 17 24 33 41 44 20 13 36 30 46 51 11 26 29 46 50 63 23 19 45 38 69 55 32 24 66 25 102 11 12-4.7 23-11 34-17 27-15 41-41 51-69 7-20 13-40 21-60 8.1-21 21-38 40-48 35-17 67-39 97-63 16-13 34-20 52-26 17-5.2 32-13 45-24 12-11 25-20 38-30 21-16 26-29 17-54-14-39-28-78-43-117-5.9-15-10-31-5.3-48 2-7.1 5.5-13 10-18 26-25 55-46 92-49 24-2.4 46-0.5 66 14 16 12 34 21 53 28 13 5.1 22 15 29 27 3.5 6.1 6.8 12 11 18 11 14 26 20 44 17 28-3.5 56-8.6 79-24 31-21 53-50 62-86 7.2-28 26-44 48-58 12-7.7 25-14 37-20 34-15 54-39 64-74 9.7-33 22-65 28-98 3.7-20 2.8-39-3-58-6.5-22-16-42-28-61-12-18-28-32-50-39-19-6.3-37-16-54-26-29-16-59-22-91-13-23 6.4-47 6.1-70 2-11-1.9-23-2.5-34 0-27 6-53 2.3-79-0.2-17-1.7-24 1.2-31 16-5.2 10-11 20-24 22-10 1.9-19-0.6-26-7.1-2.2-1.9-4.5-3.7-6-6-8.3-13-21-18-35-18-33-0.2-65-6.5-98-12-34-5.6-55 2.3-69 37-13 31-31 60-53 86-15 18-26 38-39 57-17 24-39 40-69 44-18 2.5-34-3.6-50-10-42-18-68-52-90-91-9.1-16-18-33-30-48-17-24-41-36-70-39-23-2.6-45-5.4-68-6.9-29-2.1-48-18-57-45-6-17-13-33-26-47-19-22-58-37-85-26-19 7.7-28 23-35 40-2.9 7.4-5.2 15-9.2 22-15 25-41 28-66 20-24-7.9-35-27-41-50-3.3-12-4.9-25-7.2-37-5.9-31-22-36-48-28-30 9.4-60 19-86 36-33 22-52 53-61 91-4.4 19-5.5 38-8.2 57-4.9 35-14 68-39 95-9.6 10-21 17-34 22-24 8.2-48 18-74 17-22-0.6-41-8-61-15-27-9.8-52-23-71-46-16-19-25-42-25-67-0.48-23 0.67-46-0.31-69-1-24-8-47-27-64-17-16-42-17-60 0.1-18 17-29 37-32 62-1.6 15-2.2 31-4.5 46-3.4 23-15 41-29 59-10 13-20 26-28 40-16 26-17 52-4.9 79 7.1 16 15 32 18 50 1.7 10 3.8 21 3.2 31-0.58 9.7 1.9 19 4.4 28 4 15 16 21 32 22 16 0.8 32-3.9 46-10 19-8.7 39-16 60-15 14 0.9 27 6 40 7 40 3 74-7.9 99-40 3.4-4.3 6.8-8.8 10-13 15-18 29-25 58-12 14 6.1 28 13 43 17 23 5.8 45 0.4 64-13 14-9.3 27-19 43-24 14-4 29-4.4 41 4.9 26 19 55 36 81 54 38 26 49 65 45 108-2 22-11 42-20 62-12 26-27 50-47 71-20 21-31 48-43 74-9 20-19 41-36 56-14 13-31 18-50 14-18-4.1-28-18-29-37-1.6-17-4.6-34-15-49-13-19-34-27-55-6.9-8 8.1-16 16-26 22-17 9.8-35 8.2-54 5.3-28-4.3-53-17-77-32-17-10-36-17-52-28-8.5-5.2-17-10-25-16-21-16-42-16-64-5-11 5.6-22 9.8-35 10-18 0.5-31-7.4-39-24-10-20-10-41-7.2-63 2.3-18 1.5-37-12-52-7.4-8.4-18-10-28-12-28-5.9-57-13-85-18-23-4-43 0.8-61 14-9.8 6.9-19 14-28 22-18 17-18 34-4.8 55 11 18 24 35 28 56 5.7 31 16 61 21 92 3.9 26-2.3 52-12 76-13 32-30 62-44 94-12 27-23 54-23 84-0.37 18 1.1 34 6 51 9.5 33 32 44 61 46 24 2.1 47-3.2 69-10 7.8-2.4 15-6.1 23-7.8 22-4.8 39 6.1 47 28 5.3 14 6.2 29 7.6 44 2.8 30 7.2 60 13 90 3.8 18 6.4 37 7.2 56 0.81 18 5.3 36 11 53 4 12 5.5 25 5.2 38-0.07 2.5-1.9 3.8-2.2 6"/><path d="m5e3 1122 0.2-1.3v-1.3l0.1-1.3v-2.5l-0.1-1.2-0.1-1.3-0.1-1.2-0.2-1.2-0.1-1.2-0.3-1.2-0.2-1.2-0.3-1.1-0.3-1.2-0.7-2.3-1.6-4.6-1-2.2-1.1-2.2-1.2-2.2-1.2-2.1-1.3-2.2-1.4-2.1c-9.8-14-20-28-33-40-19-18-31-20-54-3.9-13 9.2-27 17-43 19-9.3 0.8-19-0.5-28-1.9-20-2.9-40 0.2-60 2.2-24 2.3-47 2.6-70-5.1-15-5-24-15-28-30-3.4-13-3.6-26-4.8-39-1-10-2.9-20-6.5-29-4.2-11-12-19-24-22-16-4.9-31-13-41-26-16-21-18-36-4.1-59 12-19 18-40 19-62 0.7-26-8.2-49-21-70-16-25-30-50-45-75-12-20-28-36-50-44-16-6-33-4.7-48 0.2-34 11-69 18-104 26-29 6.3-45 28-43 55 0.9 12 5.1 24 8.9 36 7.9 25 8.6 51 5.4 77-1.3 11-0.5 23 1.1 35 1.9 14 4.1 28 6.5 42 3.8 23 10 44 25 62 13 15 17 33 11 52-0.6 2.1-1.4 4.1-2.9 6.1-6.3 8.5-10 8.4-15-1.1-3.6-7.2-7.7-14-9.9-22-6.9-24-23-39-45-48-26-9.9-49-24-71-40-16-11-36-8.6-46 3.9-3.3 4-7.3 7.3-10 12-11 18-28 29-48 36-47 16-69 51-80 96-5 20-2.3 41 1 61 3.7 23 1.9 45-1.9 68-2.4 14-7.3 28-3.8 43 2.9 12 11 17 21 18 24 2 44 11 62 25 12 9.5 27 16 39 26 19 15 27 34 29 57 0.7 6.4 2 13 2.1 19 0.7 26-10 44-32 57-13 8-27 14-39 25-16 13-23 30-23 50s-0.7 41 0.1 61c1.8 46-15 83-49 112-27 23-46 52-60 84-12 28-26 56-47 79-19 21-42 35-69 41-20 4.1-40-0.2-59-6.2-23-7.1-45-7.8-68-2.9-15 3.1-30 4.9-45 3-21-2.7-37-16-51-31-8.7-9.3-17-19-25-29-16-20-37-32-62-35-21-2.8-41-10-58-23-18-13-37-16-58-13-7.3 1.2-15 1.8-22 2-12 0.4-16-2.3-20-14-3.8-11-5.7-22-11-32-8.7-15-24-22-40-25-34-6.3-59-24-75-55-8.5-16-19-32-37-41-10-5.2-21-8.9-32-12-25-6.2-39-22-46-46-5.1-18-7.4-36-14-54-7.5-21-23-30-44-34-15-2.5-30-3-45-3-6.7-0.1-13-0.1-20-1.1-19-2.7-29-15-37-31-13-25-33-43-61-49-26-5.3-54 0.8-65 31-2.1 5.7-3.7 12-3.1 18 1.4 14-1.5 27-2.4 41-0.8 12-5.9 24-14 34-12 15-25 29-40 42-23 20-51 23-80 22-19-0.9-38-2.3-57-2.6-37-0.4-72-8.8-105-25-14-7.1-28-16-42-24-23-14-48-21-75-22-27-1.1-54-0.4-80 6.4-8 2.1-16 3.7-24 6.2-21 6.7-38 0.8-53-13-8.1-7.6-16-16-23-24-14-16-32-26-50-37-18-10-32-25-41-42-14-26-29-51-44-77-12-21-18-44-15-68 1.5-15 8.2-29 15-42 12-26 24-51 48-69 18-13 38-22 57-31 22-11 46-16 70-17 27-0.9 52-4.1 74-22 18-14 27-33 36-52 1.5-3.3 2.8-6.6 4.1-10 8.2-22 22-38 45-44 32-8.3 58-27 85-45 17-11 35-19 55-21 17-2.3 33 3.2 48 8.7 29 11 50-2.5 62-23 7.4-14 13-29 19-43 14-34 39-56 72-69 14-5.8 29-10 43-15 17-4.8 31-13 46-21 39-22 81-33 126-25 19 3.4 38 3.4 56-0.47 36-7.8 71-3 106 10 33 13 67 22 100 34 20 7.1 38 17 53 32 9.4 9.1 19 17 31 23 23 11 45 12 66-2.1 3.7-2.4 7.4-4.7 11-7 21-13 33-7.1 44 5 14 15 25 33 37 49 13 17 22 36 27 57 6.3 27 22 28 42 19 29-13 52-33 66-62 8.6-17 18-33 33-45 6.1-4.9 13-9.2 19-12 16-8 23-22 28-37 8-25 13-51 23-75 13-30 34-49 68-51 7.2-0.41 15-0.04 22 0.93 24 3.2 42-5.5 56-24 5-6.6 9.9-13 15-20 7.5-9.5 12-10 23-5 11 5.6 23 11 35 14 36 7.2 68-8.2 75-44 5.7-27-0.5-50-23-67-5.5-4.2-11-8.3-16-13-13-13-18-27-15-46 4-21 7.8-42 6.7-63-1.7-32 8.9-39 36-43 38-5 76-5.3 114 0.88 13 2.1 25 7.5 36 14 23 14 47 15 71 4.7 24-11 50-11 75-7.8 17 2.4 34-0.14 50-4 29-6.7 46 0.71 51 36 3.3 26 5.6 52 23 73 13 16 24 34 36 52 11 17 27 29 44 39 29 17 58 16 88 6 9.1-3 18-6.8 28-7.3 8.8-0.38 16 2.5 22 8.3 36 38 68 79 80 131 5.8 24 7.5 49 3 74-2.2 12-9.6 22-17 32-14 17-22 37-25 58-1.3 10 1.6 21 6.8 30 4 7.1 10 9.4 18 9.1 25-0.96 44-14 50-35 2-7 2.8-15 3-22 0.5-22 3.8-33 28-38 21-5 36-17 48-33 17-24 40-37 66-47 22-8.4 39-23 54-40"/><path d="m567 3334 0.28-7.1 0.44-7.1 0.62-7 0.81-7 1-6.9 1.2-6.8 1.4-6.8 1.7-6.7 1.9-6.6 2.2-6.5 2.5-6.5 2.8-6.4 3-6.4 3.4-6.2 1.8-3.1 1.9-3.1 2-3 2-3c15-22 36-38 58-51 20-12 42-20 63-30 25-11 37-30 40-55 2.7-19 8.4-38 19-55 13-22 33-37 56-46 22-8.7 41-21 57-38 15-18 34-32 52-46 16-12 28-28 39-44 11-17 26-28 47-27 25 0.3 43-14 59-32 20-24 33-51 41-80 3.9-14 9.6-28 12-43 3.3-17 0.4-33-1.3-49-1.5-14-4.4-28-3.4-42 1.4-22 14-35 30-45 20-12 43-19 66-23 28-4.3 48 10 61 34 5.2 9.2 8.7 19 12 29 7.1 21 22 36 36 52 8.8 10 16 22 20 35 8.4 27-2.6 51-28 63-7.5 3.5-15 6-23 9.2-21 8.6-30 27-36 47-15 48-2.2 89 33 123 7.3 7.1 16 13 24 19 22 15 33 36 41 60 11 35 34 60 63 81 21 14 43 27 65 38 21 10 41 9.3 62 0.1 51-22 82-60 98-112 4.3-14 9.1-28 16-40 10-18 26-29 44-38 31-16 60-37 86-62 14-13 30-22 48-28 29-11 51-30 66-57 12-19 10-40 5.9-60-7.8-36-25-70-34-106-3.9-15-5.5-29-4.8-44 0.4-7.2 3.3-14 8.1-19 14-15 30-28 48-38 15-8.8 31-9.9 47-12 32-3.9 64-7.2 95-18 9.5-3.3 17-9.2 25-15 12-9.9 25-15 41-11 29 7.9 41-9.2 48-30 4.3-13 7.4-26 13-38 18-40 74-51 106-20 12 11 22 24 33 35 22 22 47 26 76 19 14-3.5 28-8.4 40-16 27-16 38-42 46-69 7.6-26 14-52 18-78 2.4-19-1.2-37-7.8-55-8.4-23-20-44-40-58-7.7-5.4-16-9-25-12-17-5.5-32-13-46-24-28-23-58-27-92-15-16 5.6-32 8.7-48 11-16 2.6-31 7.4-42 19-16 16-35 20-56 15-19-4.8-38-2.8-57 0.9-33 6.3-66 7.2-99 3-19-2.4-36-12-52-22-15-9.1-31-16-48-20-17-3.6-31 1.9-41 18-14 22-25 46-36 70-6 13-13 25-21 37-13 20-10 31 3.3 45 6.4 6.5 8.1 15 4.9 23-3.8 10-14 17-25 16-3.7-0.3-7.4-0.5-11-1.7-20-6.8-40-5.3-58 3.2-26 12-50 12-76-0.2-24-12-49-22-70-38-28-21-46-49-60-81-5.8-14-13-27-22-39-17-24-41-30-68-31-18-0.5-35 0.3-52 3.1-18 3-37 2.9-55-0.3-19-3.4-36 0.2-53 7.2-27 11-46 3.5-63-14-2.8-2.8-6.1-5.6-8-9-11-20-30-20-49-19-20 1.8-40 2.1-59-3.4-27-7.6-45-25-55-51-4.6-12-9.2-24-16-34-15-21-36-25-60-20-32 6.3-55 25-72 52-15 24-23 49-25 77-1.7 18-2.9 35-4.2 53-0.85 12-1.5 24-1.7 36-0.1 6.2 1.3 12 3.2 18 5.4 16 20 23 42 20 17-2.5 34-4.3 51 1.2 21 6.8 32 19 32 40-0.01 4.7-2.2 9-2.2 14-0.1 12 4.2 22 12 30 14 15 30 27 43 43 14 16 23 34 26 56 2.4 22 0 43-2.6 64-3.3 27-10 54-17 80-6.8 26-24 45-42 64-20 21-33 45-43 72-6 17-12 33-20 49-7.2 15-19 25-34 32-15 6.5-30 12-45 18-24 10-47 6.7-69-4.3-15-7.3-29-17-40-29-9.3-9.7-18-20-30-27-17-10-36-14-55-20-28-8.8-56-19-80-38-26-20-57-32-88-44-18-6.4-36-1.2-53 4.7-11 3.6-22 7.7-33 8.9-22 2.1-38-8.4-51-24-17-20-28-43-42-65-6.7-10-12-22-20-31-15-18-34-27-58-26-12 0.8-16 7-17 19-0.41 7.5 1.4 15 1.9 22 0.77 12-1.6 25-4.1 37-4.8 22-4.8 45-1.8 67 2.8 21 6.4 42 3.8 63-3.4 28-10 56-22 82-13 31-33 58-44 90-8 21-17 42-16 66 0.87 48 35 68 76 59 16-3.2 29-11 43-18 21-12 40-10 58 6 14 12 26 26 30 44 2.4 13 4.9 25 1.7 39-2.5 11-1.2 23-0.36 34 2.2 32 13 62 21 92 4 15 5.5 31 8.3 47 3.5 20 13 38 20 56 3.3 8.3 6.8 17 9.8 25"/></g></svg>