<?xml version="1.0" encoding="UTF-8"?><svg id="Layer_2" xmlns="http://www.w3.org/2000/svg" viewBox="0 0 802.76 1072.74"><defs><style>.cls-1{fill:#77310a;}.cls-2{fill:#13171f;}.cls-3{fill:#f67a04;}.cls-4{fill:#625649;}.cls-5{fill:#9f978b;}.cls-6{fill:#fcbd67;}.cls-7{fill:#ea5205;}.cls-8{fill:#fdfdfd;}</style></defs><g id="Layer_1_copy_3"><path class="cls-1" d="M720.48,581.97c.14,1.04-.25,1.46-.76,1.5l-7.54-16.02c-7.11-17.42-17.47-34.41-30.07-47.72-2.66,1.09-4.07-1.86-2.06-3.83-8.96-18.48-20.42-34.98-34.37-49.52-14.12-13.46-29.52-25.24-46.19-35.32-18.82-13.18-38.86-30.85-43.33-54.37-.11-.6-.66-1.01-1.34-.89l-.68,2.13c-79.45,47.24-184.88,47.71-269.07,11.1,4.56,33.69,10.3,71.24,34.78,97.92,1.07,3.01,1.38,3.31.92.9,18.47-28.9,46.77-44.19,79.75-50.74,4.23-.84,11.79-.39,13.32,4.03,4.88.25,8.18,14.05,2.73,14.75-6.23,3.33-13.13,5.4-20.7,6.2-32.7,8.32-68.1,38.75-64.44,74.87,2.06,4.4,4.19,8.75,6.38,13.06l2.26-.81c11.41,7.06,19.9,3.36,28.14-6.38l12.25-16.73c14.59-21.54,38.11-20.32,61.24-18.12,18.8.07,33.25-4.5,40.17-23.69,3.55-5.87,10.4-8.97,16.87-5.41,13.23,7.27-.22,31.13-8.91,38.29,0,0-14.75,14.54-24.83,15.89-19.15,2.56-44.01-8.17-60.64-.31-2.96,1.4-8.41,7.22-6.62,10.16,7.99,9.56,28.25,9.84,26.41,20.04l-2.5,13.88c-10.54-5.25-22.75-6.92-32.69-15.21-1.44-1.2-5.12-.38-6.54,1.04-13.71,13.77-35.03,16.54-51.82,7.37-16.68-9.11-25.75-27.46-22.43-46.92.35-2.07,1.57-7.22.34-8.94-2.8-3.91-7.25-9.71-11.8-11.68-8.14-3.53-19.45-3.88-27.44-.13-6.69,3.14-11.52,8.51-17.55,12.51-16.43,10.89-37.38,10.88-52.62-2.23-9.28-7.99-13.79-20.17-13.07-32.84,1.32-23.32,15.24-43.66,34.54-56.1,18.95-12.22,22.7-11.9,44.11-18.99-1.28-10.05-1.83-19.37-1.99-29.41-39.93-26.5-67.28-65.77-70.99-114.32-2.35-30.8,3.15-60.15,16.5-87.84-2.42-49.28-.05-87.28,14.79-133.9,2.83-8.88,5.37-17.05,10.41-24.63,8.88-13.36,24.53-18.29,39.5-11.55,30.78,13.86,51.65,34.39,73.66,59.22,1.45,1.63,4.01,3.35,6.41,2.8,35.83-8.24,71.86-8.39,107.88-1.16,2.79.56,6.07.89,8.68.6,20.95-24.43,44.2-46.32,73.41-60.53,19.91-9.69,37.52-.99,45.92,18.03,10.8,24.47,15.51,49.66,19.41,75.94,3.74,25.21,2.07,49.49,2.55,75.06,1.23,10.23,8.54,19.98,10.95,30.54,14.35,62.86,1.41,114.02-46.98,157.56.62,14.53,7.42,27.19,18.24,36.83,9.72,8.66,20.03,16.44,31.16,23.52,27.62,17.55,49.42,40.1,66.26,68.21,20.13,33.6,22.39,54.59,30.03,92.29h0Z"/><path class="cls-6" d="M562.78,20.87c-15.54,6.31-48.5,42.71-60.19,56.72l-23.72,28.43c-44.58-16.4-92.76-16.4-137.06-.23-2.12.77-4.57-.61-5.18-2.43-12.41-17.09-25.6-32.7-40.15-47.91-6.54-6.84-12.45-13.63-20.05-19.33-6.48-6.3-13.41-11.56-21.44-15.25,2.36-1.1,6.26-1.45,8.56-.48,30.21,12.86,56.51,38.76,77.1,63.82,1.41,2.24,3.98,3.03,6.8,2.23,41.88-11.93,85.23-11.66,127.6.59,22.23-26.14,46.23-51.85,77.73-66.19,3.89-.92,6.85-.9,10,.02h0Z"/><path class="cls-7" d="M209.64,493.91l-.82-4.65c6.84-25.62,24.8-45.76,51.45-50.9,3.57-2.14,6.82-2.88,9.75-2.22.58.95,1.73,2.89,1.95,3.77,3.29,12.98,8.13,24.96,14.31,36.76,4.17,7.96-13.54-1.89-26.94,7.89-7.24,5.28-13.75,11-21.77,15.11-9.48,4.86-23.05,3.32-27.94-5.75h.01Z"/><path class="cls-6" d="M270.03,436.13c-4,2.27-8.66,4.22-13.51,5.41-26.7,6.55-40.69,27.57-46.87,52.36-9.34-12.09-1.43-31.37,8-42.25,12.87-14.84,30.15-23.42,49.61-26.54,1.67,4.13,2.44,7.49,2.77,11.01h0Z"/><path class="cls-3" d="M255,20.88c6.24.53,11.86,3.34,16.86,8.43,25.23,21.32,47.44,47,66.97,73.92l1.73.79c43.97-16.02,93.54-16.75,137.53-.19,20.01-25.54,42.07-49.7,66.18-72.48,5.46-6.01,11.63-9.51,18.51-10.48,5.3,1.55,8.96,6.11,10.74,11.51,5.65,17.16,9.76,34.48,13.2,52.56,5.67,29.76,6.6,58.8,4.23,89-.3,3.76,2.07,8.65,3.76,11.97,29.46,57.79,12.85,127.28-39.15,165.73-16.51,12.2-34.32,21.5-53.79,28.23-56.89,19.64-118.13,20.19-175.79,2.73-21.86-6.62-42.18-16.19-60.65-29.04-34.29-23.85-54.7-61.95-55.79-103.49-1.19-45.48,18.02-65.83,17.36-75.03-3.15-44.15.97-87.04,13.65-129.4,2.06-6.87,5.89-24.09,14.44-24.77h.01Z"/><path class="cls-1" d="M555.77,134.52c-13.55-10.99-26.59-21.34-41.51-29.73-2.22-1.25-4.7-3.43-2.99-6.27,6.2-10.29,30.08-47.02,41.9-45.54,2.09.26,5.03,3.28,5.7,6.07,5.86,24.18,11.9,60.52,9.85,85.98l-12.95-10.51h0Z"/><path class="cls-1" d="M307.1,102.58c-21.29,12.17-39.07,26.01-57.84,43.42-1.28-30.29,3.57-58.88,10.13-87.41.6-2.63,4.31-5.31,6.37-5.59,10.72-1.41,32.24,31.74,38.19,41.08,1.26,2.63,2.19,4.97,3.15,8.49h0Z"/><path class="cls-1" d="M431.9,305.26c-20.67-1.42-20.88-14.69-24.9-9.44-6.66,8.7-16.71,10.72-27.1,9.16-12.16-1.82-22.62-9.96-22.92-23.11-.06-2.55,4.12-4.58,6.42-4.33,7.24.79,8.25,18.1,24.86,15.09,6.34-1.15,15.61-8.11,12.61-16.13-1.86-5-15.73-15.74-13.32-22.2,3.09-8.29,29.1-6.23,37.01-5.14,1.9.26,4.62,2.12,5.49,3.46,6.65,10.28-19.18,19.45-11.66,31.92,3.48,5.78,9.24,8.55,15.86,8.26,12.41-.55,14.11-13.51,20.15-15.13,2.43-.65,7.42.67,7.22,3.57-1.04,15.29-15.02,25.03-29.73,24.02h.01Z"/><path class="cls-8" d="M339.63,242.5c-7.32,10.23-21.48,11.71-31.1,5.06-10.31-7.12-12.56-21.14-5.65-32.19,6.55-10.46,21.97-12.4,32.06-5.09,9.89,7.17,12.52,21.27,4.69,32.21h0Z"/><path class="cls-8" d="M514.22,243.01c-6.33,8.6-17.63,10.64-26.97,6.16-7.48-3.59-12.16-11.37-12.63-19.12s3.01-16.72,10.18-20.99c6.22-3.7,14.94-4.41,21.47-1.23,13.21,6.44,16.84,23.1,7.95,35.18Z"/><path class="cls-6" d="M409.92,648.77c3.87,1.83,8.88,14.09,8.88,14.09l3.06,2.26c10.91,21.42,15.92,49.18,11.58,72.89-1.87,10.2-9.88,29.71-15.98,38.03-.99,1.35-2.02,2.03-3.61,2.72-9.61,1.5-19.3,3.44-29.05,3.3l-1.18-2.04c41.2-33.74,36.38-92.83-.3-128.49-57.7-56.1-183.28-52.18-239.55-24.89-86.86,35.44-107.7,141.71-32.46,180.94-78.26-20.81-174.4-177.75,65.99-218.61,4.29-1.83,106.52-25.97,197.51,29.93,13.64,8.38,31.87,29.78,35.13,29.89l-.02-.02Z"/><path class="cls-7" d="M414.59,656.35c-8.9-11.4-37.53-38.48-67.23-51.88-29.77-13.44-76.86-22.98-121.51-16.91-76.89,10.45-285.65,56.14-162.04,192.42-4.19,3.68-5.27,3.76-10.71,5.56-119.43-119.43-27.06-194.85,173.91-218.29,72.56-8.46,142.47,13.37,199.99,70.89l-12.42,18.21Z"/><path class="cls-3" d="M327.84,805c26.02,5.39,51.4,5.86,78.11,4,29.6-2.07,57.84-9.02,85.03-21.02,17.7-7.81,33.27-18.45,47.82-31.21,32.44-28.47,53.31-75.35,44.75-118.5-5.38-27.1-19.04-49.44-40.69-66.3-19.72-15.37-41.51-26.13-65.28-34.68l6.7-11.91c1.51-2.68,17.63-27.01,18.13-38.11.22-4.91-5.59-7.7-9.01-7.84-4.15-.17-8.6,2.67-10.22,6.78-9.09,23.01-28.39,25.06-50.05,23.36-26.93-2.12-39.16.35-54.85,22.86-4.59,6.58-9.11,13.54-15.26,18.4-7.88,6.23-18.6,4.55-25.22-.78-2.96-4.79-2.12-11.86-1.35-17.43,4.85-35.26,45.16-64.86,77.15-74.8l2.96-1.91c1.96-5.04-.23-10.06-2.73-14.75l5.04-2.37c48.84-3.92,95.87-22.15,132.17-55.29,1.49-1.12,2.62-1.11,3.84.48h0s2.72,3.01,2.72,3.01c5.38,23.57,21.14,42.08,40.18,56.16,18.47,12.11,36.35,25.1,53.63,38.96,12.06,9.48,21.6,20.74,28.62,33.8.63.89,1.56,2.81,2.06,3.83,5.32,29.1,7.9,58.11,2.68,88.13-7.57,43.57-26.58,84.19-55.1,117.81-50.13,59.12-118.37,92.67-194.58,103.51-47.98,6.83-82.31,8.48-130.45-.11-33.86-6.04-198.39-11.92-218.78-40.88-11.92-16.93-36.39-84.96-28.96-104.5,15.33-40.28,225.75-90.91,281.74-52.25,12.56,7.08,41.01,88.75,38.19,103.48"/><path class="cls-3" d="M413.85,778.76c7.65-15.56,16.36-27.82,18.52-46.96,3.14-27.9-3.79-44.62-13.57-68.94,9.67-15.5,26.27-23.74,45.24-22.17,27.82,2.29,34.38,23.56,43.3,23.28,4.99-.16,12.54-13.07,19.99-17.45,15.4,44.89-8.21,86.64-46.92,108.96-20.67,11.92-43.46,19.69-66.56,23.28h0Z"/><path class="cls-7" d="M555.57,375.09s2.83,8.5-.68,8.87c-1.26.38-3.3,1.32-4.52,2.44-37.23,34.29-87.12,51.65-136.53,54.75-3.01-.76-7.18-2.93-11.05-2.36-33.82,4.95-63.51,23.3-81.89,52.12-22.37-22.07-31.01-55.1-35.36-84.86l-3.11-21.28c42.85,20.89,89.73,29.22,136.56,28.22,43.7-.93,86.46-11.67,124.95-31.93,3.93-2.07,11.63-5.97,11.63-5.97Z"/><path class="cls-6" d="M680.04,515.91c-14.5-20.31-37.43-40.34-58.98-54.32-30.77-19.96-58.37-39.26-66.17-77.62-.47-2.3.68-8.88.68-8.88.2-.18,9.09,24.94,29.06,42,24.9,21.28,40.5,24.24,67.29,52.91,12.51,13.4,22.3,28.91,28.12,45.92h0Z"/><path class="cls-6" d="M416.57,455.9c-.37.95-1.3,2.62-2.29,3.08-11.65,5.47-22.83,9.93-33.67,16.8-18.29,11.61-39.92,36.11-42.31,58.21-.6,5.6-.32,10.95-.49,16.03-7.76-6.26-10.91-15.97-8.4-26.63,5.09-21.64,19.06-39.43,38-51.02,9.41-5.75,18.6-10.37,29.49-12.55l19.67-3.94v.02Z"/><path class="cls-6" d="M384.8,782.06c-10.62,3.2-76.47,3.51-83.02-7.92,22.22,1.78,41.57-8.04,52.62-26.71,8.25-13.94,11.54-29.19,8.23-45.41-9.39-45.96-52.61-71.85-96.72-71.71-15.05.05-18.05-.04-49.97,2.42-59.66,4.6-123.22,13.23-133.85,42.78-9.42,26.21-27.29,44.88,2.14,101.43,8.15,28.62,95.75,69.18,120.43,85.68-5.97-1.17-127.78-82.44-130.73-85.61-125.06-134.73,101.78-173.77,152.51-173.6,14.02-.83,27.29-1.15,41.37-.06,29.26,2.27,57.5,10.05,83.7,23.09,9.83,4.89,18.5,11.31,26.83,17.98,13.58,10.86,22.14,24.59,29.24,40.17,10.36,22.73,9.69,48.2-1.4,70.84-4.54,9.27-11.36,17.05-19.31,23.63-.76.63-1.77,2.3-2.06,2.98h0Z"/><path class="cls-7" d="M308.26,776.28c21.71,10.89,49.61,6.62,73.61,4.26.63-.06,1.25.12,1.74.51l1.22.97s.01,0,.02,0c3.59-2.04,7.82-2.97,12.71-2.8,0,0,9.52-1.45,12.15-1.85.44-.07.88-.01,1.29.16l2.89,1.2s.01,0,.02,0l4.76-2.82s0,0,0,0c61.42-9.66,128.4-56.96,107.49-126.08,0-.01-.02-.02-.03,0l-13.38,13.58s0,0,0,0c-5.1,3.12-5.61,3.36-11.08.58-.02,0-.04-.02-.05-.04-14.02-13.67-26.26-23.48-47.62-21.16-13.09,1.42-26.87,11.27-34.36,22.08,0,0-5.6-10.94-12.11-17.45,0,0,0,0,0,0,4.91-8.15,14.95-12.92,23.98-17.17,25.44-11.99,54.66-7.01,74.84,12.64.02.02.04.02.06,0l13.13-10.82s0-.02,0-.02c-13.97-19.22-40.52-33.49-62.02-40.39-12.83-4.12-24.41-9.14-35.84-14.83l-.11-.05c-1.07-.49-2.64-1.2-2.64-1.2,0,0,3.06-11.08,2.62-15.21-.08-.75-.48-1.42-1.11-1.83-5.18-3.33-10.72-6.26-16.61-8.79-1.45-.62-2.83-1.42-4.03-2.44-14.69-12.45,14.32-22.59,26.5-20.6,19.38,1.38,38.46,6.91,55.15-3.97,2.9-1.89,11.03-11.51,11.81-12.44.01-.02.04,0,.03.02-2.16,6.34-9.26,20.61-12.32,26.09,67.67,22.62,121.72,75.23,102.86,150.63-29.12,116.48-207.19,167.71-355.71,56.72-27.56-20.6-93.01-68.15-127.28-65.07-24.93,2.24-50.61,40.26-9.3,99.67,41.31,59.41,3.48-9.59,3.48-9.59,0,0-18.12-35.96-3.47-59.13,14.64-23.17,51.39-1.6,113.92,51.29,55.64,50.27,183.13,76.79,252.17,62.3,140.98-29.58,251.38-149.46,223.43-297.92-.03-.16-.04-.33-.04-.5.04-1.16.24-5.92,1.08-5.08,13.11,13.11,30.11,41.95,38.03,61.93.82-.23-.08.34.34.32,24.8,11.86,39.09,43.49,34.35,71.32,0,.01,0,.02.01.03,14.81,8.92,25.53,21.58,34.11,36.86,13.77,24.5,16.76,52.91,11.06,80.71-11.83,50.55-53.06,84.38-104.92,88.29,0,0-.02,0-.02.02-9.38,28.72-33.53,49.52-63.27,54.89-18.38,3.33-36.15-.26-51.61-10.27-.01,0-.02,0-.03,0-12.69,10.93-26,19.66-41.73,23.75-19.8,5.15-39.47,7.04-59.33,2.19-27.07-4.57-57.12-24.18-68.03-50.01,0,0,0,0,0,0-2.27-.46-4.85-.79-7.12-.74l-48.46,1.07s-.01,0-.02.01c-9.42,21.03-24.87,38.18-44.38,49.1-13.01,7.29-32.14-36.79-46.71-34.34-32.1,5.4-25.5-18.61-54.9-32.22-8.34-3.86-20.87-4.61-29-8.99-13.45-7.24,22.05-14.65,7.28-18.71-15.82-4.35-48.9-61-60.49-49.39-20.07,20.11-.98-10.17,13.29,10.91,5.79,8.55-58.39-34.04-51.54-27.02,2.92,4.48-9.57,8.48-13.2,9.08,0,0,0,0-.01,0l-1.87-1.49c-4.31-2.83,52.25,22.74,46.03,19.43-48.98-26.58,47.82,98.02,76.35,45.3,25.55-47.2-103.46-26.49-56.54-7.39l54.17,23.33s.04-.02.02-.03c-138.19-69.46-178.92-163-89.67-204.85,26.26-12.31,56.37,10.81,84.56,33.59,0,0,86.01,73.12,119.41,89.88Z"/><path class="cls-3" d="M552.97,838.96c1.55,1.77,2.01,4.51,1.37,8.21,15.98-31.03,39.11-51.87,71.78-39.41,5.59-56.2,67.94-74.86,118.94-56.86-12.16-13.27-31.43-16.8-48.74-16.9l-2.3-1.96c21.76-44.18,34.48-81.43,30.01-132.69,14.83,14.3,17.51,33.78,14.71,52.46-.48,2.28-1.83,8.16.64,9.63,19.99,11.91,34.63,29.78,41.95,51.88,2.26,6.83.6,12.54-.92,19.28-10.57,46.93-46.98,77.13-96.84,66.94-6.91,30.21-22.97,54.36-54.34,61.66-12.77,2.97-25,1.61-36.42-5.47l-11.78,12.32c-10.45,10.93-24.1,18.13-39.22,19.88-13.05,1.5-25.21-4.83-33.6-14.19-9.39-10.47,3.83-26.71,11.31-31.16,10.5-6.25,22.58-7.85,33.45-3.61h0Z"/><path class="cls-6" d="M694.02,732.03c20.08-.56,44.94,4.54,57.17,22.92-21.76-7.43-43.58-10.44-64.83-3.79-28.77,9-37.95,25.73-50.91,52.65-1.23,2.55-4.37,10.22-27.49,9.52-28.91-.87-41.35,17.52-55.28,40.31-.71-4.88-.65-10.66.28-14.69,13.5-31.37,36.5-45.2,70.79-40.8.06-9.8,3.12-17.79,7.64-25.82,13.18-23.35,36.36-37.71,62.62-40.31h.01Z"/><path class="cls-2" d="M712.02,737.04c-45.38-30.58-103.36-15.74-134.6,27.41-6.11,8.45-11.27,16.53-16.6,25.41-8.89,14.8-16.67,23.57-35.65,16.3-5.55-7.55-9.96-14.69-16.14-21.32-15.49-16.62-35.48-26.95-57.6-33.53,8.95-24.51.33-51.51-20.07-66.43-7.95-5.82-17.92-5.93-26.26-1.55-21.88,15.55-31.21,42.76-22.83,68.44-34.67,10.05-54.61,25.2-71.37,56.58-33,3.05-78.05-15.11-109.87-26.25-27.1-9.49-53.35-17.9-81.24-24.75-2.7-.67-12.58-.06-14.86,1.27l-62.57,32.5c-4.44,2.61-7.98,11.34-6.69,16.22,2.06,7.8,9.11,10.87,16.16,12.6,15.43,3.79,30.6,7.06,45.01,14,31.36,15.11,64.19,40.48,89.87,64.2,48.02,44.34,95.88,83.18,160.82,100.47-3.35,3.46-6.88,5-10.85,6.54-8.59,3.32-16.92,7.02-24.25,12.58-12.49,9.46-22,31.74-18.61,47.61.53,2.51,3.2,7.36,6.33,7.36l232.53.04c4.34,0,6.91-3.09,7.47-7.12,2.48-17.71-4.28-35.89-18.17-47.65-13.22-11.2-27.37-11.49-37.78-21.73,29.81-9.84,54.84-25.91,75.8-49.05,4.81,11.37,10.69,20.67,20.13,27.39,20.57,14.63,48.22,11.5,64.38-7.79,12.09-14.44,13.31-33.16,3.11-49.95l25.34-10.89c9.65-4.14,19.22-8.21,28.13-13.91,12.54-8.02,23.46-18.26,31.76-30.75,26.41-39.72,19.19-97.29-20.83-124.25ZM676.4,818.68c-3.77,9.12-10.92,16.25-20.54,20.86l-47.24,22.59c9.21-20.94,15.78-44.84,33.22-59.17,8.68-5.58,19.14-8.99,28.69-4.29,7.24,3.56,7.86,12.58,5.87,20.01Z"/><path class="cls-6" d="M469.88,827.06c0,.09.49,1.58.1,1.59-.59.02-2.39.02-3.11.14l-39.67,6.54c-13.8,2.27-27.45,1.28-41.32.48l-34.02-1.98c-5.74-.33-11.52,1.02-16.6,3.42-33.79,15.94-69.68,6.13-102.71-6.73l-27.49-10.71c-34.94-13.61-64.5-28.32-103.24-31.65l-.98-1.12c5.63-2.46,12.14-6.46,18.02-8.69,10.82,1.49,21.17,3.94,31.39,7.42l44.03,14.97c22.51,7.66,44.29,15.5,67.11,21.94,19.42,5.48,37.57,5.5,57.62,5.36l150.88-1v.02Z"/><path class="cls-4" d="M462.93,1055.13l-1.96-3.78c.13-6.7-2.65-8.95-9.13-10.19l-27.34-.75-1.41-2.04c-.03.28-.08.5-.2.55-.8.29-1.57.37-2.42.42-15.89.87-50.69-.09-64.9-4.6-3.25-1.03-9.64-3.42-11.77-5.89l-.11-2.75c1.63-1.39,3.77-1.88,5.89-2,28.86,2.29,58.11,4.43,86.76,2.8.7-.04-12.1-4.07-13.54-3.39l-49.3-3.92c-1.76-.71-2.48-1.7-1.69-3.48,4.52-2.24,7.23-5.28,8.12-9.12l2.01-1.08c27.06,1.75,53.34,1.74,79.88-3.66,11.08,12.25,24.18,19.64,38.72,25.85,10.44,4.46,18.83,14.74,19.72,27.04h-57.35.02Z"/><path class="cls-5" d="M724.97,786.2c10.12,28.35-2.6,62.88-26.23,82.53-9.05,7.52-18.99,13.24-29.49,17.56,5.93-11.09,35.44-26.19,40.48-66.25,1.63-12.94-.96-26.3-9.41-36.54-20.99-25.45-59.43-23.45-83.07,1.05-23.64,24.5-27.73,57.75-39.91,51.06-5.37-2.95-7.06-8.69-6.39-14.49l1.06-9.18c2.08-3.39,5.27-6.31,9.59-8.75,10.05-8.9,19.33-18.55,27.84-28.98,21.97-21.48,47.87-26.17,77.15-18.1,19.7,5.43,31.26,13.62,38.37,30.1h0Z"/><path class="cls-6" d="M724.97,786.2h0c-4.58-10.77-13.76-18.39-24.49-23.05-31.58-13.73-68.05-12.7-91.72,14.82-9.85,11.45-24.59,28.64-37.65,35.08l-.23-1.28c-.19-.92,3.01-6.23,5.15-9.49,19.68-30.04,34.21-55.31,74.33-60.76,33.02-4.48,63.67,14,74.63,44.68h-.01Z"/><path class="cls-5" d="M462.93,1055.13h-13.08l-99.87-.12c-4.7,0-9.22-.12-13.11.12-2.79.2-1.55-11.19-.92-12.44,1.14-2.25,2.93-2.98,5.27-3.42,26.18-.49,52.83-.7,79.02.07l2.85-.96,28.9.8c2.82.08,7.03,2.05,8.62,3.84,2.16,2.42,2.5,8.99,2.32,12.13v-.02Z"/><path class="cls-4" d="M456.16,807.63c-1.18-9.83-6.53-20.32-14.66-27.03-6.64-5.48-15.13-7.61-22.64-10.63-4.15.54-4.84-1.57-3.92-3.92,30.2-2.64,69.65,14.63,86.6,41.71l-45.38-.13Z"/><path class="cls-5" d="M381.95,1005.91c.24,5.84-3.66,8.61-9.45,11.59l48.29,3.81c8.24.65,16.13,2.51,23.45,7.52l-47.36.42c-21.3.19-34.06-3.55-53.19-3.15-1.2,1.53-1.76.99-.83-.8,10.36-5.61,19.8-11.59,26.31-21.2,4.33,1.15,8.83,1.66,12.77,1.81h.01Z"/><path class="cls-6" d="M314.39,1055.13c3.53-16.5,13.28-27.33,28.47-29.83l.83.8c8.7,8.29,25.14,9.63,38.08,10.26l41.32,2.01-.22,1.1c-.07.35-1.76.96-2.54.97l-78.22.74c-1.17.01-4.19,1.05-4.29,2.07l-.96,11.89"/><path class="cls-6" d="M414.94,766.05c1.44,1.02,2.29,3.26,3.92,3.92-24.04,6.66-47.81,15.55-61.97,37.61l-22.06-.19c10.08-16.45,24.88-26.96,42.3-32.94,12.2-4.18,25.37-9.02,37.81-8.41h0Z"/><path class="cls-5" d="M627.35,924.28c0,5.93.38,12.49-3.72,17.16-4.56,5.18-11.2,6.7-16.78,3.49-5.09-2.93-7.45-10.12-4.67-16.21,1.27-2.78,5.08-7.24,7.92-8.58,6.71-3.17,12.25.85,17.25,4.14h0Z"/><path class="cls-4" d="M427,707.05s9.4,23.84,7.3,30.68c-2.81,9.15-8.25,13.13-17.62,12.35-3.87-.32-8.5-.24-11.52-2.11-1.32-3.5-2.69-10.79,2.67-8.26l1.53-1.76c10.43,1.62,13.06-1.98,13.57-11.58-.37-6.06-.62-12.1-.74-18.14,1-1.73,3.32-3.29,4.81-1.18h0Z"/><path class="cls-6" d="M421.18,700.49l1.55,3.8c-3.77,9.84-8.88,19.59-12.5,29.51.12,2.91-.68,4.88-2.4,5.91-3.88.87-3.59,6.18-2.67,8.26-17.35-19.62,7.83-50.93,14.27-48.49,1.52.58,1.75,1.02,1.75,1.02h0Z"/><path class="cls-5" d="M427,707.05l-2.1,1.25c-.61.36-1.02.98-1.1,1.68-.62,5.76,5.25,26.49-5.44,29.62-3.65,1.07-7.37.74-10.53.12-1.12-11.17,11.21-28.34,13.35-39.22,2.64,1.48,4.64,3.75,5.82,6.55h0Z"/><path class="cls-5" d="M414.54,834.6c18.69-2.4,37.13-4.91,55.34-7.54l19.01.1,29.76-1.34,18.44,1.79c.6.46,1.16.94,1.62,1.5s.83,1.06.94,1.62c9.9,55.87-36.62,102.39-86.82,117.45-94.45,28.32-176.08-26.49-247.91-77.18-17.49-12.61-35.2-25.15-53.25-36.58-24.68-15.62-50.79-27.35-79.89-31.05-1.37.11-3.9-.46-5.93-1.05l34.99-15.27c14.45.1,28.73,2.54,42.85,7.33,34.99,13.09,69.6,26.26,103.83,39.5,30.54,11.09,62.23-3.19,96.99-2.01"/><path class="cls-6" d="M361.91,846.44c5.98,7.79-17.62,21.29-37.08,14.65-1.13-.39-2.73-1.82-3.21-2.66-2.65-4.63,33.85-20.37,40.29-11.99h0Z"/><path class="cls-4" d="M575.43,810.77c-3.78,9.91.26,33.71,11.33,18.03,16.17-35.81,47.18-78.85,92.73-62.4,54.95,19.86,31.68,90.99-5.68,116.73-.83.57-1.6,1.21-2.37,1.86s-2.1,1.31-3.06,1.68c-13.1,5.08-25.52,9.99-38.18,15.98-8.01,3.79-14.23,11.14-20.39,17.3h0c-7.63,5.26-11.29,21.28.34,24.13,10.91,2.67,18.37-10.76,16.92-19.99h0c6.89,4.54,10.18,12.33,7.35,21.62-2.68,8.79-10.79,15.03-18.62,17.3-9.57,2.78-18.86.56-26.36-5.37-19.42-15.37-14.63-46.31,5.16-62.94,36.56-30.73,97.16-33.47,101.82-80.7,1.11-11.28-2.83-23.33-12.31-30.09-11.98-8.54-28.49-9.17-42.06-3.47-22.84,9.58-32.15,28.99-41.38,50.33l-25.06,57.92c-6.88,15.9-16.74,29.89-27.88,43.17-33.15,39.5-85.05,56.18-135.91,55.71-70.08-.66-130.71-31.44-182.1-77.3-23.48-20.95-46.12-41.57-70.93-60.83-7.81-6.06-15.42-10.94-23.6-16.56-18.58-12.77-39.24-21.38-60.85-27.8-.79-.23-7.05-2.17-6.91-2.31,28.32-2.21,70.59,20.37,94.83,35.97,16.15,10.39,30.59,21.69,46.44,32.45l37.56,25.5c50.91,34.56,105.07,61.14,168.61,56.3,24.23-1.84,47.16-7.74,67.98-19.79,37.83-21.89,62.65-62.92,54.42-106.42,12.17,1.18,25.38-8.71,33.78-15.84"/><path class="cls-5" d="M639.35,884.75c-17.83,7.24-31.02,17.67-45.73,30.42,4.95-14.95,17.57-24.55,30.25-30.95l40.06-20.2c19.68-9.92,26.6-20.08,39.09-38.62,2.09,3.83,1.17,8.06-.41,11.78-4.93,11.6-13.37,20.61-24.18,27.47-12.29,7.8-25.03,14.39-39.09,20.1h0Z"/><path class="cls-5" d="M456.16,807.63l-99.27-.04c.05-6.97,8.4-13.8,13.84-18.16,12.53-10.05,28.01-15.66,43.25-20.15l.95-.22c.94-.22,1.9-.32,2.86-.3l2.44.06c.81.02,1.63.12,2.42.32,17.15,4.44,30.93,16.61,34.78,34.12.28,1.26.02,2.58-.73,3.63l-.54.75h.01Z"/><path class="cls-6" d="M395.24,796.05c-2.57,1.38-5.42,2.09-7.67,2.13-2,.04-6.1-2.49-5.75-5.08.87-6.44,10.11-9.63,14.94-6.09,2.79,2.04,1.51,7.41-1.51,9.03h-.01Z"/></g></svg>