<?xml version="1.0" encoding="UTF-8"?><svg id="Layer_1_copy" xmlns="http://www.w3.org/2000/svg" viewBox="0 0 1059.51 1313.61"><defs><style>.cls-1{fill:#77310a;}.cls-2{fill:#13171f;}.cls-3{fill:#f67a04;}.cls-4{fill:#625649;}.cls-5{fill:#9f978b;}.cls-6{fill:#fcbd67;}.cls-7{fill:#ea5205;}.cls-8{fill:#fdfdfd;}</style></defs><path class="cls-1" d="M979.74,578.73c-1.17,3.15-1.14,6.62-1.5,11.48l-9.29-22.77c-7.11-17.42-17.47-34.41-30.07-47.72-2.66,1.09-4.07-1.86-2.06-3.83-8.96-18.48-20.42-34.98-34.37-49.52-14.12-13.46-29.52-25.24-46.19-35.32-18.82-13.18-38.86-30.85-43.33-54.37-.11-.6-.66-1.01-1.34-.89l-.68,2.13c-79.45,47.24-184.88,47.71-269.07,11.1,4.56,33.69,10.3,71.24,34.78,97.92,1.07,3.01,1.38,3.31.92.9,18.47-28.9,46.77-44.19,79.75-50.74,4.23-.84,11.79-.39,13.32,4.03,4.88.25,8.18,14.05,2.73,14.75-6.23,3.33-13.13,5.4-20.7,6.2-32.7,8.32-68.1,38.75-64.44,74.87,2.06,4.4,4.19,8.75,6.38,13.06l2.26-.81c11.41,7.06,19.9,3.36,28.14-6.38l12.25-16.73c14.59-21.54,38.11-20.32,61.24-18.12,18.8.07,33.25-4.5,40.17-23.69,3.55-5.87,10.4-8.97,16.87-5.41,13.23,7.27-.22,31.13-8.91,38.29l-2.91-.18c-7.97,6.24-18.84,10.47-28.92,11.82-19.15,2.56-37.01-3.92-53.64,3.94-2.96,1.4-8.41,7.22-6.62,10.16,7.99,9.56,28.25,9.84,26.41,20.04l-2.5,13.88c-10.54-5.25-22.75-6.92-32.69-15.21-1.44-1.2-5.12-.38-6.54,1.04-13.71,13.77-35.03,16.54-51.82,7.37-16.68-9.11-25.75-27.46-22.43-46.92.35-2.07,1.57-7.22.34-8.94-2.8-3.91-7.25-9.71-11.8-11.68-8.14-3.53-19.45-3.88-27.44-.13-6.69,3.14-11.52,8.51-17.55,12.51-16.43,10.89-37.38,10.88-52.62-2.23-9.28-7.99-13.79-20.17-13.07-32.84,1.32-23.32,15.24-43.66,34.54-56.1,18.95-12.22,22.7-11.9,44.11-18.99-1.28-10.05-1.83-19.37-1.99-29.41-39.93-26.5-67.28-65.77-70.99-114.32-2.35-30.8,3.15-60.15,16.5-87.84-2.42-49.28-.05-87.28,14.79-133.9,2.83-8.88,5.37-17.05,10.41-24.63,8.88-13.36,24.53-18.29,39.5-11.55,30.78,13.86,51.65,34.39,73.66,59.22,1.45,1.63,4.01,3.35,6.41,2.8,35.83-8.24,71.86-8.39,107.88-1.16,2.79.56,6.07.89,8.68.6,20.95-24.43,44.2-46.32,73.41-60.53,19.91-9.69,37.52-.99,45.92,18.03,10.8,24.47,15.51,49.66,19.41,75.94,3.74,25.21,2.07,49.49,2.55,75.06,1.23,10.23,8.54,19.98,10.95,30.54,14.35,62.86,1.41,114.02-46.98,157.56.62,14.53,7.42,27.19,18.24,36.83,9.72,8.66,20.03,16.44,31.16,23.52,27.62,17.55,49.42,40.1,66.26,68.21,20.13,33.6,24.9,51.37,32.54,89.07Z"/><path class="cls-6" d="M819.55,20.86c-15.54,6.31-48.5,42.71-60.19,56.72l-23.72,28.43c-44.58-16.4-92.76-16.4-137.06-.23-2.12.77-4.57-.61-5.18-2.43-12.41-17.09-25.6-32.7-40.15-47.91-6.54-6.84-12.45-13.63-20.05-19.33-6.48-6.3-13.41-11.56-21.44-15.25,2.36-1.1,6.26-1.45,8.56-.48,30.21,12.86,56.51,38.76,77.1,63.82,1.41,2.24,3.98,3.03,6.8,2.23,41.88-11.93,85.23-11.66,127.6.59,22.23-26.14,46.23-51.85,77.73-66.19,3.89-.92,6.85-.9,10,.02Z"/><path class="cls-7" d="M466.41,493.9l-.82-4.65c6.84-25.62,24.8-45.76,51.45-50.9,3.57-2.14,6.82-2.88,9.75-2.22.58.95,1.73,2.89,1.95,3.77,3.29,12.98,8.13,24.96,14.31,36.76,4.17,7.96-13.54-1.89-26.94,7.89-7.24,5.28-13.75,11-21.77,15.11-9.48,4.86-23.05,3.32-27.94-5.75Z"/><path class="cls-6" d="M526.8,436.12c-4,2.27-8.66,4.22-13.51,5.41-26.7,6.55-40.69,27.57-46.87,52.36-9.34-12.09-1.43-31.37,8-42.25,12.87-14.84,30.15-23.42,49.61-26.54,1.67,4.13,2.44,7.49,2.77,11.01Z"/><path class="cls-3" d="M511.77,20.87c6.24.53,11.86,3.34,16.86,8.43,25.23,21.32,47.44,47,66.97,73.92l1.73.79c43.97-16.02,93.54-16.75,137.53-.19,20.01-25.54,42.07-49.7,66.18-72.48,5.46-6.01,11.63-9.51,18.51-10.48,5.3,1.55,8.96,6.11,10.74,11.51,5.65,17.16,9.76,34.48,13.2,52.56,5.67,29.76,6.6,58.8,4.23,89-.3,3.76,2.07,8.65,3.76,11.97,29.46,57.79,12.85,127.28-39.15,165.73-16.51,12.2-34.32,21.5-53.79,28.23-56.89,19.64-118.13,20.19-175.79,2.73-21.86-6.62-42.18-16.19-60.65-29.04-34.29-23.85-54.7-61.95-55.79-103.49-1.19-45.48,18.02-65.83,17.36-75.03-3.15-44.15.97-87.04,13.65-129.4,2.06-6.87,5.89-24.09,14.44-24.77Z"/><path class="cls-1" d="M812.54,134.51c-13.55-10.99-26.59-21.34-41.51-29.73-2.22-1.25-4.7-3.43-2.99-6.27,6.2-10.29,30.08-47.02,41.9-45.54,2.09.26,5.03,3.28,5.7,6.07,5.86,24.18,11.9,60.52,9.85,85.98l-12.95-10.51Z"/><path class="cls-1" d="M563.87,102.57c-21.29,12.17-39.07,26.01-57.84,43.42-1.28-30.29,3.57-58.88,10.13-87.41.6-2.63,4.31-5.31,6.37-5.59,10.72-1.41,32.24,31.74,38.19,41.08,1.26,2.63,2.19,4.97,3.15,8.49Z"/><path class="cls-1" d="M688.67,305.25c-20.67-1.42-20.88-14.69-24.9-9.44-6.66,8.7-16.71,10.72-27.1,9.16-12.16-1.82-22.62-9.96-22.92-23.11-.06-2.55,4.12-4.58,6.42-4.33,7.24.79,8.25,18.1,24.86,15.09,6.34-1.15,15.61-8.11,12.61-16.13-1.86-5-15.73-15.74-13.32-22.2,3.09-8.29,29.1-6.23,37.01-5.14,1.9.26,4.62,2.12,5.49,3.46,6.65,10.28-19.18,19.45-11.66,31.92,3.48,5.78,9.24,8.55,15.86,8.26,12.41-.55,14.11-13.51,20.15-15.13,2.43-.65,7.42.67,7.22,3.57-1.04,15.29-15.02,25.03-29.73,24.02Z"/><path class="cls-8" d="M596.4,242.49c-7.32,10.23-21.48,11.71-31.1,5.06-10.31-7.12-12.56-21.14-5.65-32.19,6.55-10.46,21.97-12.4,32.06-5.09,9.89,7.17,12.52,21.27,4.69,32.21Z"/><path class="cls-8" d="M770.99,243c-6.33,8.6-17.63,10.64-26.97,6.16-7.48-3.59-12.16-11.37-12.63-19.12s3.01-16.72,10.18-20.99c6.22-3.7,14.94-4.41,21.47-1.23,13.21,6.44,16.84,23.1,7.95,35.18Z"/><path class="cls-6" d="M666.69,648.76c.24,1.88,1.11,3.84,2.44,5.59l6.44,8.5,3.06,2.26c10.91,21.42,15.92,49.18,11.58,72.89-1.87,10.2-9.88,29.71-15.98,38.03-.99,1.35-2.02,2.03-3.61,2.72-9.61,1.5-19.3,3.44-29.05,3.3l-1.18-2.04c41.2-33.74,36.38-92.83-.3-128.49-57.7-56.1-169.67-58.42-239.55-24.89-63.6,30.52-96.75,95.98-67.23,162.2.97,2.68-.01,3.58-2.54,4.5-53.75-12.06-102.41,17.68-111.37,73.84-10.87,68.15,40.38,115.37,97.47,142.33l1.84,1.66c3.87,1.5,8.21,4.81,11.97,6.77-1.7.56-4.29,2.85-6.87,3.27-1.57.17-3.26.35-4.77-.24-61.86-24.45-121.26-65.48-123.13-137.94-1.04-40.3,20.86-85.5,58.44-103.11.55-.26,1.23-.27,1.94-.25.75.02,1.5.18,2.25.38.26-.68.56-1.34.97-1.92,3.27-4.71,34.62-10.45,41.48-10.09.9.05,1.7.24,2.4.84-6.46-19.86-5.18-43.91.29-64.24,15.15-56.31,65.2-95.58,119.1-112.29.72-.22,1.53-.17,2.37-.09s1.74.29,2.59.55c.69-2.35,2.8-3.63,6.33-3.84,4.29-1.83,7.78-1.93,10.47-.3,18.95.86,16.72-3.81,39.98-4.85,3.91-.18,7.84-.37,11.37-.3l17.77.37c12,.25,28.06,1.67,39.61,4.17,11.55,2.5,23.62,3.63,34.25,8.92,6.19,3.09,11.95,5.86,18.61,7.47,9.96,2.4,17.12,9.34,25.45,14.45,10.76,6.61,20.04,13.2,27.33,24.12,1.9,2.85,4.55,5.66,7.8,5.77Z"/><path class="cls-7" d="M444.52,588.64c-5.09,1.08-11.81,2.51-16.8,4.14-1.42.35-2.49-.29-3.2-1.92l-9.65-7.88c-2.46-.52-3.93-1.57-4.38-3.16-44.89-27.59-98.29,2.18-106.61,51.08-2.57,3.57-7.1,4.64-13.58,3.22-33.75,2.75-59.74,21.46-69.38,54.72-8.5,29.32-.05,51.41,16.52,75.89l2.47-.35c5.13,5.53,11.23,9.9,18.3,13.12l.33,2.53c-36.76,17.74-59.47,55.25-60.61,96.96-1.02,37.33,15.61,71.8,43.31,96.42,16.91,15.03,35.78,26.34,56.38,35.59,9.1,4.09,17.89,7.67,26.19,12.19-4.19,3.68-9.7,6.1-15.14,7.9-12.1-3.67-23.27-8.99-35.08-14.85-36.35-18.03-68.83-46.27-82.94-85.42-19.96-50.94-7.06-115.11,38.7-148.61-36.9-33.41-39.38-87.86-11.11-126.53,16.61-22.71,41.59-37.13,70.41-36.52,14.09-50.35,66.97-78.47,116.14-59.52,16.6,5.89,30.75,16.41,39.74,30.99Z"/><path class="cls-3" d="M811.66,383.96l2.72,3.02c5.38,23.57,21.14,42.08,40.18,56.16,18.47,12.11,36.35,25.1,53.63,38.96,12.06,9.48,21.6,20.74,28.62,33.8.63.89,1.56,2.81,2.06,3.83,5.32,29.1,7.9,58.11,2.68,88.13-7.57,43.57-26.58,84.19-55.1,117.81-50.13,59.12-118.37,92.67-194.58,103.51-47.98,6.83-82.31,8.48-130.45-.11-33.86-6.04-75.44-22.13-95.83-51.09-11.92-16.93-16.29-38.39-8.86-57.93,15.33-40.28,69.22-50.86,102.01-32.37,12.56,7.08,20.47,19.69,17.65,34.42-13.42-14.02-33.63-16.52-49.26-5.62-4.16,2.9-8.76,6.17-11.3,10.78-6.94,12.6-7.91,28.47-1.89,41.68,11.7,25.69,46.11,30.96,70.67,36.05,26.02,5.39,51.4,5.86,78.11,4,29.6-2.07,57.84-9.02,85.03-21.02,17.7-7.81,33.27-18.45,47.82-31.21,32.44-28.47,53.31-75.35,44.75-118.5-5.38-27.1-19.04-49.44-40.69-66.3-19.72-15.37-41.51-26.13-65.28-34.68l6.7-11.91c1.51-2.68,2.5-5.57,2.62-8.37,8.94-7,15.01-18.64,15.51-29.74.22-4.91-5.59-7.7-9.01-7.84-4.15-.17-8.6,2.67-10.22,6.78-9.09,23.01-28.39,25.06-50.05,23.36-26.93-2.12-39.16.35-54.85,22.86-4.59,6.58-9.11,13.54-15.26,18.4-7.88,6.23-18.6,4.55-25.22-.78-2.96-4.79-2.12-11.86-1.35-17.43,4.85-35.26,45.16-64.86,77.15-74.8l2.96-1.91c1.96-5.04-.23-10.06-2.73-14.75l5.04-2.37c48.84-3.92,95.87-22.15,132.17-55.29,1.49-1.12,2.62-1.11,3.84.48Z"/><path class="cls-3" d="M670.62,778.75c7.65-15.56,16.36-27.82,18.52-46.96,3.14-27.9-3.79-44.62-13.57-68.94,9.67-15.5,26.27-23.74,45.24-22.17,27.82,2.29,34.38,23.56,43.3,23.28,4.99-.16,12.54-13.07,19.99-17.45,15.4,44.89-8.21,86.64-46.92,108.96-20.67,11.92-43.46,19.69-66.56,23.28Z"/><path class="cls-7" d="M811.59,375.79c2.26.69,3.58,7.79.07,8.16-1.26.38-3.3,1.32-4.52,2.44-37.23,34.29-87.12,51.65-136.53,54.75-3.01-.76-7.18-2.93-11.05-2.36-33.82,4.95-63.51,23.3-81.89,52.12-22.37-22.07-31.01-55.1-35.36-84.86l-3.11-21.28c42.85,20.89,89.73,29.22,136.56,28.22,43.7-.93,86.46-11.67,124.95-31.93,3.93-2.07,7.11-4.89,10.88-5.26Z"/><path class="cls-6" d="M936.81,515.9c-14.5-20.31-37.43-40.34-58.98-54.32-30.77-19.96-58.37-39.26-66.17-77.62-.47-2.3,1.98-6.13-.07-8.16l.75-.72c.18-.17,1.12.95,1.24,1.33,5.04,15.38,15.24,29.91,27.82,40.67,24.9,21.28,40.5,24.24,67.29,52.91,12.51,13.4,22.3,28.91,28.12,45.92Z"/><path class="cls-6" d="M673.34,455.89c-.37.95-1.3,2.62-2.29,3.08-11.65,5.47-22.83,9.93-33.67,16.8-18.29,11.61-39.92,36.11-42.31,58.21-.6,5.6-.32,10.95-.49,16.03-7.76-6.26-10.91-15.97-8.4-26.63,5.09-21.64,19.06-39.43,38-51.02,9.41-5.75,18.6-10.37,29.49-12.55l19.67-3.94Z"/><path class="cls-3" d="M410.49,579.81c1.55.07,4.23.47,5.53,1.53l9.91,8.1c.78.64,1.71,2.79,1.79,3.33-42.83,14.03-74.48,31.84-101.61,69.41-22.62,31.33-30.15,69.61-21.44,107.5-16.42,1.38-32.15,3.59-46.14,10.34-14.62-8.84-9.78-3.86-21.1-15.3-34.14-55.23,13.21-121.45,77.03-109.68-4.48-51.74,47.53-98.6,96.03-75.23Z"/><path class="cls-6" d="M410.49,579.81c-9.88-.45-27.34-11.39-55.9,3.89-27.13,13.63-40.26,44.2-37.95,74.33-15.89-3.03-31.67-2.74-46.22,3.59-33.08,14.39-50.23,51.3-38.87,85.43l5.88,17.68c-8.69-8.78-14.7-19.55-18.69-31.88-4.96-15.35-4.05-30.7.72-46.12,10.49-33.95,42.41-57.17,78.19-54.41,1.12.09,3.4-.22,3.86-.93,2.34-3.53,4.99-42.94,48.02-59.54,19.19-7.41,39.01-6.12,57.16,4.06,1.8,1.01,3.53,2.16,3.79,3.9Z"/><path class="cls-3" d="M641.57,782.05c-10.62,3.2-76.47,3.51-83.02-7.92,22.22,1.78,41.57-8.04,52.62-26.71,8.25-13.94,11.54-29.19,8.23-45.41-9.39-45.96-52.61-71.85-96.72-71.71-15.05.05-29.49,3.44-43.35,8.55-29.16,10.75-60.33,38.28-70.96,67.83-9.42,26.21-10.42,54.58-2.78,81.43,8.15,28.62,31.16,58.01,55.84,74.51-5.19-1.02-10.08-2.3-14.95-4.41l-48.76-21.15c-22.7-9.84-47.58-12.67-71.62-7.91-43.31,8.58-71.59,47.81-68.14,91.27.96,12.07,3.22,22.57,9.12,33.44,12.45,22.95,27.1,41.84,49.82,54.58.73.41,1.81,2.35,1.83,2.72-33.34-12.91-63.71-35.7-84.86-65.51-5.83-8.22-9.19-17.19-12.24-26.88-8.13-25.85-7.52-53.11,3.6-78.31,15.59-35.31,53.63-56.24,91.75-51.04l14.94,2.04c-.98-5.12-3.45-8-4.88-12.09-14.38-41.13-4.53-85.52,23.54-118.35,9.93-11.61,20.96-20.23,34.32-28.2,29.77-17.76,63.49-27.35,98.31-29.41,14.02-.83,27.29-1.15,41.37-.06,29.26,2.27,57.5,10.05,83.7,23.09,9.83,4.89,18.5,11.31,26.83,17.98,13.58,10.86,22.14,24.59,29.24,40.17,10.36,22.73,9.69,48.2-1.4,70.84-4.54,9.27-11.36,17.05-19.31,23.63-.76.63-1.77,2.3-2.06,2.98Z"/><path class="cls-6" d="M363.13,747.25c-.13,3.85-4.6,4.87-6.98,4.78-2.58-.11-7.14-1.53-7.41-5.21-1.2-16.37.55-32.84,7.11-48.03,15.28-35.38,58.25-67.49,63.39-49.11,3.61,12.94-14.69,10.7-32.79,32.16-15.47,18.34-22.48,40.98-23.32,65.41Z"/><path class="cls-6" d="M260.32,841.33c-6.83,9.29-6.39,17.68-12.28,18.33-1.93.21-5.16-2.32-5.53-4.51-2.41-14.37,21.83-45.2,46.15-44.24,3.01.12,4.76,3.94,4.54,6.3-1.12,11.61-16.46,1.81-32.87,24.12Z"/><path class="cls-7" d="M743.68,517l1.85,1.68c-2.12,6.29-4.72,12.2-7.79,17.71,67.67,22.62,121.72,75.23,102.86,150.63-29.12,116.48-184.6,143.33-284.78,113.54-31.46-9.36-56.8-29.42-45.4-65.78,8.33-26.58,43.77-35.95,64.5-16.86.45-29.06-34-38.76-58.3-36.78-61.19,4.97-82.62,68.34-36.75,109.78,55.64,50.27,165.5,46.78,234.54,32.29,141.06-29.6,251.5-149.59,223.38-298.17,0,0,.36-1.78,1.09-5.33l2.33.55c17.47,16.42,27.14,39.88,35.7,61.38.26-1.94.5-3.09,2.84-2.93,24.81,11.86,36.6,46.75,31.85,74.59,14.82,8.92,25.54,21.58,34.13,36.87,13.77,24.5,16.76,52.91,11.06,80.71-11.83,50.56-53.07,84.39-104.94,88.29-9.38,28.73-33.53,49.53-63.27,54.91-18.39,3.33-36.16-.26-51.63-10.28-12.69,10.94-26.01,19.67-41.75,23.76-19.8,5.15-39.47,7.04-59.33,2.19-27.07-4.57-57.12-24.18-68.03-50.01-2.27-.46-4.85-.79-7.12-.74l-48.47,1.07c-9.42,21.03-24.87,38.19-44.38,49.11-13.01,7.29-25.14,12.21-39.71,14.66-32.1,5.4-64.2.16-93.6-13.45-8.34-3.86-16.34-7.28-24.47-11.66-13.45-7.24-27.2-13-41.97-17.06-15.82-4.35-32.88-1.42-44.47,10.19-20.07,20.11-12.59,55.4,1.68,76.48,5.79,8.55,13.61,14.94,20.46,21.96,2.92,4.48-9.59,8.49-13.21,9.08l-1.88-1.49c-4.31-2.83-5.75-3.46-11.97-6.77-48.98-26.58-80.89-87.66-52.36-140.38,25.55-47.2,83.25-55.49,130.17-36.39l54.28,23.38c-72.26-59.22-72.48-170.13,15.24-215.2,54.41-27.95,131.73-14.15,152.63,48.93,13.24,39.96-9.99,83.3-53.71,84.8,23.64,6.93,50.35,6.63,74.62,4.18l2,1.58c3.59-2.04,7.83-2.98,12.72-2.81l12.81-1.95,3.53,1.46,4.77-2.83c61.43-9.66,128.42-56.97,107.48-126.11l-13.4,13.6c-5.11,3.13-5.61,3.36-11.11.57-14.03-13.68-26.27-23.5-47.64-21.18-13.09,1.42-24.62,8.27-32.11,19.08l-3.04.97-2.23.36c-2.38-2.28-10.7-12.4-6.65-14.46,4.91-8.15,12.51-14.24,21.54-18.49,25.45-12,54.69-7,74.87,12.67l13.18-10.86c-13.97-19.23-40.52-33.5-62.03-40.4-12.83-4.12-24.41-9.14-35.84-14.83l-1.72-1.74c1.76-5.68,2.23-10.99,1.43-15.94-5.97-3.92-12.42-7.31-19.34-10.15-19.58-13.21,11.52-24.37,24.25-22.29,19.38,1.38,34.48,1.98,52.4-6.72,2.77-2.35,5.52-3.35,8.25-2.99Z"/><path class="cls-3" d="M809.74,838.95c1.55,1.77,2.01,4.51,1.37,8.21,15.98-31.03,45.11-43.77,77.78-31.31,5.59-56.2,61.94-82.96,112.94-64.96-12.16-13.27-31.43-16.8-48.74-16.9l-2.3-1.96c21.76-44.18,34.48-81.43,30.01-132.69,14.83,14.3,17.51,33.78,14.71,52.46-.48,2.28-1.83,8.16.64,9.63,19.99,11.91,34.63,29.78,41.95,51.88,2.26,6.83.6,12.54-.92,19.28-10.57,46.93-46.98,77.13-96.84,66.94-6.91,30.21-22.97,54.36-54.34,61.66-12.77,2.97-25,1.61-36.42-5.47l-11.78,12.32c-10.45,10.93-24.1,18.13-39.22,19.88-13.05,1.5-25.21-4.83-33.6-14.19-9.39-10.47,3.83-26.71,11.31-31.16,10.5-6.25,22.58-7.85,33.45-3.61Z"/><path class="cls-6" d="M950.79,732.02c20.08-.56,44.94,4.54,57.17,22.92-21.76-7.43-43.58-10.44-64.83-3.79-28.77,9-49.08,33.91-51.91,63.65-.71,7.51-3.37-.78-26.49-1.48-28.91-.87-41.35,17.52-55.28,40.31-.71-4.88-.65-10.66.28-14.69,13.5-31.37,36.5-45.2,70.79-40.8.06-9.8,3.12-17.79,7.64-25.82,13.18-23.35,36.36-37.71,62.62-40.31Z"/><path class="cls-2" d="M361.7,999.49c2.28-1.33,12.16-1.94,14.86-1.27,27.89,6.85,54.14,15.26,81.24,24.75,31.82,11.14,76.87,29.3,109.87,26.25,16.76-31.38,36.7-46.53,71.37-56.58-8.38-25.68.95-52.89,22.83-68.44,8.34-4.38,18.31-4.27,26.26,1.55,20.4,14.92,29.02,41.92,20.07,66.43,22.12,6.58,42.11,16.91,57.6,33.53,6.18,6.63,10.59,13.77,16.14,21.32,18.98,7.27,26.76-1.5,35.65-16.3,5.33-8.88,10.49-16.96,16.6-25.41,31.24-43.15,89.22-57.99,134.6-27.41,40.02,26.96,47.24,84.53,20.83,124.25-8.3,12.49-19.22,22.73-31.76,30.75-8.91,5.7-18.48,9.77-28.13,13.91l-25.34,10.89c10.2,16.79,8.98,35.51-3.11,49.95-16.16,19.29-43.81,22.42-64.38,7.79-9.44-6.72-15.32-16.02-20.13-27.39-20.96,23.14-45.99,39.21-75.8,49.05,10.41,10.24,24.56,10.53,37.78,21.73,13.89,11.76,20.65,29.94,18.17,47.65-.56,4.03-3.13,7.12-7.47,7.12l-232.53-.04c-3.13,0-5.8-4.85-6.33-7.36-3.39-15.87,6.12-38.15,18.61-47.61,7.33-5.56,15.66-9.26,24.25-12.58,3.97-1.54,7.5-3.08,10.85-6.54-64.94-17.29-112.8-56.13-160.82-100.47-25.68-23.72-58.51-49.09-89.87-64.2-14.41-6.94-29.58-10.21-45.01-14-7.05-1.73-14.1-4.8-16.16-12.6-1.29-4.88,2.25-13.61,6.69-16.22"/><path class="cls-6" d="M726.65,1067.93c0,.09.49,1.58.1,1.59-.59.02-2.39.02-3.11.14l-39.67,6.54c-13.8,2.27-27.45,1.28-41.32.48l-34.02-1.98c-5.74-.33-11.52,1.02-16.6,3.42-33.79,15.94-69.68,6.13-102.71-6.73l-27.49-10.71c-34.94-13.61-64.5-28.32-103.24-31.65l-.98-1.12c5.63-2.46,12.14-6.46,18.02-8.69,10.82,1.49,21.17,3.94,31.39,7.42l44.03,14.97c22.51,7.66,44.29,15.5,67.11,21.94,19.42,5.48,37.57,5.5,57.62,5.36l150.88-1Z"/><path class="cls-4" d="M719.7,1296l-1.96-3.78c.13-6.7-2.65-8.95-9.13-10.19l-27.34-.75-1.41-2.04c-.03.28-.08.5-.2.55-.8.29-1.57.37-2.42.42-15.89.87-50.69-.09-64.9-4.6-3.25-1.03-9.64-3.42-11.77-5.89l-.11-2.75c1.63-1.39,3.77-1.88,5.89-2,28.86,2.29,58.11,4.43,86.76,2.8.7-.04-12.1-4.07-13.54-3.39l-49.3-3.92c-1.76-.71-2.48-1.7-1.69-3.48,4.52-2.24,7.23-5.28,8.12-9.12l2.01-1.08c27.06,1.75,53.34,1.74,79.88-3.66,11.08,12.25,24.18,19.64,38.72,25.85,10.44,4.46,18.83,14.74,19.72,27.04h-57.35Z"/><path class="cls-5" d="M981.74,1027.07c10.12,28.35.17,60.91-23.46,80.56-9.05,7.52-18.99,13.24-29.49,17.56,5.93-11.09,32.67-24.22,37.71-64.28,1.63-12.94-.96-26.3-9.41-36.54-20.99-25.45-59.43-23.45-83.07,1.05s-27.73,57.75-39.91,51.06c-5.37-2.95-7.06-8.69-6.39-14.49l1.06-9.18c2.08-3.39,5.27-6.31,9.59-8.75,10.05-8.9,19.33-18.55,27.84-28.98,21.97-21.48,47.87-26.17,77.15-18.1,19.7,5.43,31.26,13.62,38.37,30.1Z"/><path class="cls-6" d="M981.74,1027.07l-1.28.35c-4.58-10.78-12.49-18.74-23.22-23.4-31.58-13.73-68.05-12.7-91.72,14.82-9.85,11.45-24.59,28.64-37.65,35.08l-.23-1.28c.75-3.27,3.01-6.23,5.15-9.49,19.68-30.04,34.21-55.31,74.33-60.76,33.02-4.48,63.67,14,74.63,44.68Z"/><path class="cls-5" d="M719.7,1296h-13.08l-99.87-.12c-4.7,0-9.22-.12-13.11.12-2.79.2-1.55-11.19-.92-12.44,1.14-2.25,2.93-2.98,5.27-3.42,26.18-.49,52.83-.7,79.02.07l2.85-.96,28.9.8c2.82.08,7.03,2.05,8.62,3.84,2.16,2.42,2.5,8.99,2.32,12.13Z"/><path class="cls-4" d="M712.93,1048.5c-1.18-9.83-6.53-20.32-14.66-27.03-6.64-5.48-15.13-7.61-22.64-10.63-4.15.54-5.76-.37-4.84-2.72,30.2-2.64,70.57,13.43,87.52,40.51l-45.38-.13Z"/><path class="cls-5" d="M638.72,1246.78c.24,5.84-3.66,8.61-9.45,11.59l48.29,3.81c8.24.65,16.13,2.51,23.45,7.52l-47.36.42c-21.3.19-34.06-3.55-53.19-3.15-1.2,1.53-1.76.99-.83-.8,10.36-5.61,19.8-11.59,26.31-21.2,4.33,1.15,8.83,1.66,12.77,1.81Z"/><path class="cls-6" d="M571.16,1296c3.53-16.5,13.28-27.33,28.47-29.83l.83.8c8.7,8.29,25.14,9.63,38.08,10.26l41.32,2.01-.22,1.1c-.07.35-1.76.96-2.54.97l-78.22.74c-1.17.01-4.19,1.05-4.29,2.07l-.96,11.89"/><path class="cls-6" d="M670.79,1008.12c1.44,1.02,3.21,2.06,4.84,2.72-24.04,6.66-47.81,15.55-61.97,37.61l-22.06-.19c10.08-16.45,24.88-26.96,42.3-32.94,12.2-4.18,24.45-7.82,36.89-7.21Z"/><path class="cls-5" d="M884.12,1165.15c0,5.93.38,12.49-3.72,17.16-4.56,5.18-11.2,6.7-16.78,3.49-5.09-2.93-7.45-10.12-4.67-16.21,1.27-2.78,5.08-7.24,7.92-8.58,6.71-3.17,12.25.85,17.25,4.14Z"/><path class="cls-4" d="M682.7,949.67l1.08,1.12,1.07,1.09c4.44,5.3,8.32,19.88,6.22,26.72-2.81,9.15-8.25,13.13-17.62,12.35-3.87-.32-8.5-.24-11.52-2.11-1.32-3.5-2.69-10.79,2.67-8.26l1.53-1.76c10.43,1.62,13.06-1.98,13.57-11.58-.37-6.06-.62-12.1-.74-18.14,1-1.73,2.25-1.54,3.74.57Z"/><path class="cls-6" d="M676.7,943.11l1.4,1.92c-3.77,9.84-7.48,19.72-11.1,29.64.12,2.91-.68,4.88-2.4,5.91-3.88.87-.83,9.44-2.67,8.26-17.35-19.62,9.26-51.77,12.93-47.74l1.84,2.02Z"/><path class="cls-5" d="M682.7,949.67l-1.67-.12c-2.27-.17,5.95,27.45-5.9,30.92-3.65,1.07-7.37.74-10.53.12-1.12-11.17,9.96-26.59,12.1-37.47,2.64,1.48,4.82,3.76,6,6.56Z"/><path class="cls-5" d="M684.84,951.88l-1.07-1.09c.47.48.9.9,1.07,1.09Z"/><path class="cls-8" d="M912.63,1080.41l-47.24,22.59c9.21-20.94,15.78-44.84,33.22-59.17,8.68-5.58,19.14-8.99,28.69-4.29,7.24,3.56,7.86,12.58,5.87,20.01-3.77,9.12-10.93,16.26-20.55,20.86Z"/><path class="cls-5" d="M671.31,1075.47c18.69-2.4,37.13-4.91,55.34-7.54l19.01.1,29.76-1.34,18.44,1.79c.6.46,1.16.94,1.62,1.5s.83,1.06.94,1.62c9.9,55.87-36.62,102.39-86.82,117.45-94.45,28.32-176.08-26.49-247.91-77.18-17.49-12.61-35.2-25.15-53.25-36.58-24.68-15.62-50.79-27.35-79.89-31.05-1.37.11-3.9-.46-5.93-1.05l34.99-15.27c14.45.1,28.73,2.54,42.85,7.33,34.99,13.09,69.6,26.26,103.83,39.5,30.54,11.09,63.98,8.94,96.99-2.01"/><path class="cls-6" d="M618.68,1087.31c5.98,7.79-17.62,21.29-37.08,14.65-1.13-.39-2.73-1.82-3.21-2.66-2.65-4.63,33.85-20.37,40.29-11.99Z"/><path class="cls-4" d="M830.7,1053.64c-3.78,9.91,1.76,31.71,12.83,16.03,16.17-35.81,47.18-78.85,92.73-62.4,55.82,20.17,30.93,93.24-7.46,117.91-.48.89-2.38,1.86-3.65,2.35-13.1,5.08-25.52,9.99-38.18,15.98-8.01,3.79-14.23,11.14-20.39,17.3h0c-7.63,5.26-11.29,21.28.34,24.13,10.91,2.67,18.37-10.76,16.92-19.99h0c6.89,4.54,10.18,12.33,7.35,21.62-2.68,8.79-10.79,15.03-18.62,17.3-9.57,2.78-18.86.56-26.36-5.37-19.42-15.37-14.63-46.31,5.16-62.94,36.56-30.73,97.16-33.47,101.82-80.7,1.11-11.28-2.83-23.33-12.31-30.09-11.98-8.54-28.49-9.17-42.06-3.47-22.84,9.58-32.15,28.99-41.38,50.33l-25.06,57.92c-6.88,15.9-16.74,29.89-27.88,43.17-33.15,39.5-85.05,56.18-135.91,55.71-70.08-.66-130.71-31.44-182.1-77.3-23.48-20.95-46.12-41.57-70.93-60.83-7.81-6.06-15.42-10.94-23.6-16.56-18.58-12.77-39.24-21.38-60.85-27.8-.79-.23-7.05-2.17-6.91-2.31,28.32-2.21,70.59,20.37,94.83,35.97,16.15,10.39,30.59,21.69,46.44,32.45l37.56,25.5c50.91,34.56,105.07,61.14,168.61,56.3,24.23-1.84,47.16-7.74,67.98-19.79,37.83-21.89,62.48-62.06,54.25-105.56,12.17,1.18,25.38-8.71,33.78-15.84"/><path class="cls-5" d="M896.12,1125.62c-17.83,7.24-31.02,17.67-45.73,30.42,4.95-14.95,17.57-24.55,30.25-30.95l40.06-20.2c19.68-9.92,26.6-20.08,39.09-38.62,2.09,3.83,1.17,8.06-.41,11.78-4.93,11.6-13.37,20.61-24.18,27.47-12.29,7.8-25.03,14.39-39.09,20.1Z"/><path class="cls-5" d="M712.93,1048.5l-99.27-.04c.05-6.97,8.4-13.8,13.84-18.16,12.53-10.05,28.01-15.66,43.25-20.15l2.36-.55,5.12.12c18.37,4.33,33.11,17.45,36.37,36.47l-1.68,2.32Z"/><path class="cls-6" d="M652.01,1036.92c-2.57,1.38-5.42,2.09-7.67,2.13-2,.04-6.1-2.49-5.75-5.08.87-6.44,10.11-9.63,14.94-6.09,2.79,2.04,1.51,7.41-1.51,9.03Z"/></svg>